<svg width="201" height="107" viewBox="0 0 201 107" fill="none" xmlns="http://www.w3.org/2000/svg">
<path d="M65.6619 106.372H56.8486V71.0967H65.6619V106.372V106.372Z" fill="#C4122E"/>
<path d="M136.725 81.2041C136.362 81.018 133.526 79.3207 129.311 79.3207C123.613 79.3207 119.66 83.3244 119.66 88.7295C119.66 93.971 123.443 98.1468 129.311 98.1468C133.453 98.1468 136.337 96.4833 136.725 96.2746V105.743C135.62 106.053 132.607 106.997 128.694 106.997C118.781 106.997 110.079 100.095 110.079 88.7267C110.079 78.1957 117.951 70.4701 128.694 70.4701C132.825 70.4701 135.89 71.4852 136.725 71.7362V81.2041ZM44.7326 81.2041C44.378 81.018 41.5445 79.3207 37.3292 79.3207C31.6203 79.3207 27.6701 83.3244 27.6701 88.7295C27.6701 93.971 31.4556 98.1468 37.3292 98.1468C41.472 98.1468 44.3529 96.4833 44.7326 96.2746V105.743C43.6383 106.053 40.6289 106.997 36.6927 106.997C26.788 106.997 18.0977 100.095 18.0977 88.7267C18.0977 78.1957 25.9701 70.4701 36.6955 70.4701C40.8438 70.4701 43.9035 71.4852 44.7326 71.7362V81.2041V81.2041ZM164.449 79.4532C159.22 79.4532 155.337 83.6092 155.337 88.7295C155.337 93.861 159.22 98.0143 164.449 98.0143C169.672 98.0143 173.566 93.861 173.566 88.7295C173.566 83.6092 169.672 79.4532 164.449 79.4532ZM182.904 88.7295C182.904 98.8206 175.191 106.997 164.452 106.997C153.707 106.997 146.004 98.8206 146.004 88.7267C146.004 78.6553 153.709 70.4701 164.449 70.4701C175.191 70.4701 182.904 78.6553 182.904 88.7295V88.7295ZM99.0828 79.1149C98.9516 79.0726 95.2415 78.0378 92.193 78.0378C88.6616 78.0378 86.741 79.2333 86.741 80.9279C86.741 83.0764 89.3316 83.8262 90.7805 84.2887L93.212 85.0698C98.9348 86.9081 101.539 90.8639 101.539 95.1608C101.539 104.023 93.8233 107 87.0788 107C82.3916 107 78.0004 106.126 77.5677 106.036V97.9155C78.3438 98.1129 82.0399 99.2294 85.8896 99.2294C90.2752 99.2294 92.2908 97.9325 92.2908 95.9363C92.2908 94.1487 90.546 93.1166 88.3601 92.423C87.8297 92.2426 87.0257 91.9888 86.4786 91.8083C81.5709 90.2407 77.4784 87.3253 77.4784 81.4889C77.4784 74.8912 82.3693 70.4617 90.4929 70.4617C94.7837 70.4617 98.8204 71.5134 99.0828 71.5839V79.112V79.1149Z" fill="#C4122E"/>
<path d="M8.75176 33.1874C8.75176 30.757 6.78645 28.786 4.37727 28.786C1.9681 28.786 0 30.7569 0 33.1845V42.4468C0.0288321 43.5996 0.50252 44.6954 1.32001 45.5005C2.13751 46.3056 3.23411 46.7561 4.37589 46.7561C5.51767 46.7561 6.61425 46.3056 7.43175 45.5005C8.24924 44.6954 8.72293 43.5996 8.75176 42.4468V33.1874V33.1874ZM32.7849 21.0352C32.7849 19.8631 32.3238 18.7389 31.5032 17.91C30.6826 17.0812 29.5696 16.6156 28.409 16.6156C27.2485 16.6156 26.1354 17.0812 25.3148 17.91C24.4942 18.7389 24.0331 19.8631 24.0331 21.0352V42.4468C24.0331 43.6189 24.4942 44.7431 25.3148 45.5719C26.1354 46.4008 27.2485 46.8664 28.409 46.8664C29.5696 46.8664 30.6826 46.4008 31.5032 45.5719C32.3238 44.7431 32.7849 43.6189 32.7849 42.4468V21.0323V21.0352ZM56.8208 4.40556C56.8208 1.97511 54.8555 0.00140609 52.4463 0.00140609C50.0343 0.00140609 48.069 1.97511 48.069 4.40556V51.2465C48.0979 52.3993 48.5716 53.4951 49.3891 54.3002C50.2065 55.1053 51.3031 55.556 52.4449 55.556C53.5867 55.556 54.6833 55.1053 55.5008 54.3002C56.3183 53.4951 56.792 52.3993 56.8208 51.2465V4.40556V4.40556ZM80.8539 21.0352C80.8539 19.8631 80.3929 18.7389 79.5723 17.91C78.7516 17.0812 77.6386 16.6156 76.478 16.6156C75.3175 16.6156 74.2045 17.0812 73.3838 17.91C72.5632 18.7389 72.1022 19.8631 72.1022 21.0352V42.4468C72.1022 43.6189 72.5632 44.7431 73.3838 45.5719C74.2045 46.4008 75.3175 46.8664 76.478 46.8664C77.6386 46.8664 78.7516 46.4008 79.5723 45.5719C80.3929 44.7431 80.8539 43.6189 80.8539 42.4468V21.0323V21.0352ZM104.862 33.1874C104.863 32.0213 104.405 30.9027 103.589 30.0774C102.774 29.2521 101.667 28.7875 100.513 28.786C99.3555 28.7853 98.2454 29.2479 97.4254 30.0724C96.6054 30.8969 96.1425 32.0159 96.1381 33.1845V42.4468C96.1381 43.6152 96.5976 44.7357 97.4156 45.5619C98.2337 46.3881 99.3431 46.8523 100.5 46.8523C101.657 46.8523 102.766 46.3881 103.584 45.5619C104.402 44.7357 104.862 43.6152 104.862 42.4468V33.1874V33.1874ZM128.906 21.0352C128.877 19.8861 128.405 18.7937 127.59 17.9913C126.775 17.1888 125.682 16.7397 124.544 16.7397C123.406 16.7397 122.313 17.1888 121.498 17.9913C120.683 18.7937 120.211 19.8861 120.182 21.0352V42.4468C120.182 43.6152 120.642 44.7357 121.46 45.5619C122.278 46.3881 123.387 46.8523 124.544 46.8523C125.701 46.8523 126.811 46.3881 127.629 45.5619C128.447 44.7357 128.906 43.6152 128.906 42.4468V21.0323V21.0352ZM152.956 4.40556C152.956 3.23714 152.497 2.11656 151.679 1.29037C150.86 0.46417 149.751 2.93679e-05 148.594 2.93679e-05C147.437 2.93679e-05 146.328 0.46417 145.51 1.29037C144.692 2.11656 144.232 3.23714 144.232 4.40556V51.2465C144.206 51.8412 144.3 52.4351 144.508 52.9923C144.715 53.5495 145.032 54.0585 145.44 54.4886C145.848 54.9187 146.337 55.261 146.879 55.4949C147.421 55.7287 148.005 55.8494 148.594 55.8494C149.184 55.8494 149.767 55.7287 150.309 55.4949C150.851 55.261 151.341 54.9187 151.748 54.4886C152.156 54.0585 152.473 53.5495 152.681 52.9923C152.888 52.4351 152.982 51.8412 152.956 51.2465V4.40556V4.40556ZM177 21.0352C177 18.602 175.049 16.6254 172.584 16.6254C171.427 16.6261 170.318 17.0907 169.5 17.9171C168.683 18.7435 168.224 19.864 168.224 21.0323V42.4468C168.224 44.8913 170.178 46.8621 172.584 46.8621C175.049 46.8621 177 44.8913 177 42.4468V21.0323V21.0352ZM201 33.1874C201 32.0179 200.54 30.8961 199.721 30.0691C198.902 29.2421 197.792 28.7776 196.634 28.7776C195.476 28.7776 194.365 29.2421 193.547 30.0691C192.728 30.8961 192.268 32.0179 192.268 33.1874V42.4468C192.268 44.8913 194.225 46.8648 196.634 46.8648C199.04 46.8648 200.997 44.8913 200.997 42.4468V33.1874H201Z" fill="#15495D"/>
<path d="M195.955 101.725V102.277H194.398V106.368H193.756V102.28H192.192V101.725H195.955V101.725ZM196.282 101.725H197.284L198.661 105.534H198.683L200.015 101.727H200.997V106.368H200.341V102.562H200.319L198.923 106.368H198.317L196.955 102.562H196.924V106.368H196.282V101.725V101.725Z" fill="#C4122E"/>
</svg>
