<svg width="243" height="43" viewBox="0 0 243 43" fill="none" xmlns="http://www.w3.org/2000/svg">
<path d="M238.461 0.927829C235.88 0.242216 233.178 1.49246 232.008 3.87194L216.078 34.9262C215.634 35.8134 214.747 36.3377 213.779 36.3377C212.811 36.3377 211.924 35.7731 211.48 34.9262L195.51 3.91227C194.3 1.53279 191.638 0.322879 189.057 0.968162C186.435 1.61344 184.62 3.95259 184.661 6.61439V39.2818C184.661 40.8144 185.911 42.0646 187.443 42.0646C188.976 42.0646 190.226 40.8144 190.226 39.2818V6.04977C190.226 5.92878 190.186 5.76746 190.388 5.6868C190.589 5.60614 190.63 5.80779 190.67 5.92878L206.6 37.0637C208.657 41.0564 213.537 42.6292 217.53 40.6127C219.062 39.8465 220.272 38.5962 221.079 37.0637L236.969 5.9691C237.009 5.84811 237.09 5.6868 237.251 5.72713C237.413 5.76746 237.413 5.96911 237.413 6.0901V39.2818C237.413 40.8144 238.663 42.0646 240.195 42.0646C241.728 42.0646 242.978 40.8144 242.978 39.2818V6.57405C242.857 3.91226 241.042 1.57311 238.461 0.927829Z" fill="#00B336"/>
<path d="M47.3774 1.12932C46.0465 0.403373 44.3929 0.927673 43.667 2.25857V2.2989L26.2443 35.9343C25.8814 36.5796 25.3974 36.9829 24.9134 36.9829C24.4295 36.9829 23.9052 36.5796 23.5825 35.9343L6.1599 2.2989C5.47428 0.968005 3.82074 0.403383 2.48985 1.089C2.44952 1.089 2.44952 1.12932 2.40919 1.12932C1.03796 1.85526 0.553999 3.54914 1.23961 4.92036L18.6219 38.0718C19.9125 40.5722 22.292 42.0645 24.9134 42.0645C27.5349 42.0645 29.8741 40.5722 31.2049 38.0718L48.6679 4.92036C49.2325 3.50881 48.7082 1.85526 47.3774 1.12932Z" fill="#00B336"/>
<path d="M68.4294 0C56.895 0 47.498 9.59859 47.498 21.375C47.498 33.1514 56.895 42.75 68.4294 42.75C75.0839 42.7097 81.3351 39.5236 85.2471 34.1193C86.1747 32.8691 85.8924 31.1349 84.6825 30.2073C83.4726 29.32 81.7787 29.562 80.8511 30.7316C80.8511 30.7316 80.8511 30.7719 80.8108 30.7719C77.8264 34.8049 73.3497 37.3458 68.4294 37.3458C60.8473 37.3458 54.5155 31.4979 53.2249 24.1578H86.6183C88.1509 24.1175 89.3608 22.8672 89.3608 21.3347C89.3608 9.59858 79.9639 0 68.4294 0ZM53.2249 19.0762C54.5155 11.7361 60.8473 5.36391 68.4294 5.36391C76.0115 5.36391 82.3837 11.7361 83.6742 19.0762H53.2249Z" fill="#00B336"/>
<path d="M113.882 0C102.347 0 92.9502 9.59859 92.9502 21.375C92.9502 33.1514 102.347 42.75 113.882 42.75C120.536 42.7097 126.787 39.5236 130.699 34.1193C131.627 32.8691 131.345 31.1349 130.135 30.2073C128.925 29.32 127.231 29.562 126.303 30.7316C126.303 30.7316 126.303 30.7719 126.263 30.7719C123.278 34.8049 118.802 37.3458 113.882 37.3458C106.299 37.3458 99.9676 31.4979 98.6771 24.1578H132.111C133.643 24.1175 134.853 22.8672 134.853 21.3347C134.853 9.59858 125.456 0 113.882 0ZM98.6771 19.0762C99.9676 11.7361 106.299 5.36391 113.882 5.36391C121.464 5.36391 127.836 11.7361 129.126 19.0762H98.6771Z" fill="#00B336"/>
<path d="M163.084 4.7174C161.794 2.29759 159.535 0.845703 156.994 0.845703C154.454 0.845703 152.195 2.29759 150.905 4.7174L133.522 37.9495C132.796 39.3207 133.321 40.9742 134.652 41.7002C135.055 41.9018 135.498 42.0228 135.942 42.0228C136.991 42.0228 137.918 41.4582 138.402 40.5306L143.282 31.174H163.326C164.859 31.174 166.069 29.9238 166.069 28.3912C166.069 26.8587 164.738 25.7294 163.205 25.7294L146.065 25.7698L155.704 6.57258C156.027 6.00796 156.43 5.64499 156.914 5.64499C157.357 5.64499 157.801 6.00796 158.124 6.57258L175.546 40.4903C176.232 41.8212 177.885 42.3858 179.216 41.7002C179.257 41.7002 179.257 41.6599 179.297 41.6599C180.628 40.9339 181.031 38.9981 180.346 37.6672L163.084 4.7174Z" fill="#00B336"/>
</svg>
