<svg width="336" height="306" viewBox="0 0 336 306" fill="none" xmlns="http://www.w3.org/2000/svg">
<g filter="url(#filter0_d)">
<rect x="16" y="12" width="304" height="274" rx="1" fill="#3A74E3"/>
</g>
<g filter="url(#filter1_d)">
<rect x="49" y="33" width="96" height="96" rx="1" fill="white"/>
</g>
<rect opacity="0.3" x="96.8074" y="72.8074" width="64.5166" height="64.5166" rx="1" fill="#3A74E3"/>
<path d="M41.968 208.84H45.16V216.616L51.736 208.816H55.168L48.064 217.024L55.528 226H51.76L45.16 217.984V226H41.968V208.84ZM57.4311 226V213.448H60.3351V222.328L65.7591 213.448H68.6391V226H65.7591V217.12L60.3351 226H57.4311ZM77.6978 226.24C76.7378 226.24 75.8578 226.088 75.0578 225.784C74.2738 225.48 73.5938 225.016 73.0178 224.392C72.4578 223.768 72.0258 222.976 71.7218 222.016C71.4178 221.056 71.2658 219.912 71.2658 218.584V217.696C71.2658 216.304 71.3858 215.016 71.6258 213.832C71.8818 212.648 72.2898 211.616 72.8498 210.736C73.4098 209.856 74.1538 209.152 75.0818 208.624C76.0098 208.096 77.1618 207.8 78.5378 207.736L79.3058 207.712C80.2178 207.664 80.9698 207.608 81.5618 207.544C82.1698 207.48 82.6578 207.384 83.0258 207.256V209.536C82.6578 209.696 82.1938 209.824 81.6338 209.92C81.0898 210.016 80.2978 210.096 79.2578 210.16L78.6338 210.208C77.7538 210.256 77.0018 210.432 76.3778 210.736C75.7698 211.024 75.2658 211.424 74.8658 211.936C74.4658 212.432 74.1538 213.04 73.9298 213.76C73.7218 214.464 73.5778 215.256 73.4978 216.136H73.6178C74.0338 215.32 74.6258 214.656 75.3938 214.144C76.1618 213.632 77.1458 213.376 78.3458 213.376C79.2098 213.376 80.0018 213.536 80.7218 213.856C81.4418 214.16 82.0498 214.592 82.5458 215.152C83.0578 215.712 83.4498 216.376 83.7218 217.144C84.0098 217.912 84.1538 218.744 84.1538 219.64V219.784C84.1538 220.792 83.9858 221.696 83.6498 222.496C83.3298 223.28 82.8818 223.952 82.3058 224.512C81.7298 225.072 81.0418 225.504 80.2418 225.808C79.4578 226.096 78.6098 226.24 77.6978 226.24ZM77.7218 223.984C78.8098 223.984 79.6578 223.624 80.2658 222.904C80.8738 222.168 81.1778 221.136 81.1778 219.808V219.712C81.1778 218.432 80.8978 217.44 80.3378 216.736C79.7778 216.016 78.9458 215.656 77.8418 215.656C76.7218 215.656 75.8418 216.024 75.2018 216.76C74.5618 217.48 74.2418 218.488 74.2418 219.784V219.904C74.2418 221.152 74.5458 222.144 75.1538 222.88C75.7618 223.616 76.6178 223.984 77.7218 223.984ZM92.2949 226.24C91.3669 226.24 90.5109 226.096 89.7269 225.808C88.9589 225.504 88.2869 225.08 87.7109 224.536C87.1509 223.976 86.7109 223.304 86.3909 222.52C86.0869 221.736 85.9349 220.848 85.9349 219.856V219.664C85.9349 218.688 86.0869 217.808 86.3909 217.024C86.7109 216.224 87.1509 215.544 87.7109 214.984C88.2709 214.408 88.9269 213.968 89.6789 213.664C90.4469 213.344 91.2789 213.184 92.1749 213.184C92.9589 213.184 93.7029 213.304 94.4069 213.544C95.1269 213.784 95.7589 214.16 96.3029 214.672C96.8469 215.184 97.2789 215.84 97.5989 216.64C97.9349 217.44 98.1029 218.4 98.1029 219.52V220.36H88.9109C88.9589 221.56 89.2709 222.48 89.8469 223.12C90.4389 223.76 91.2789 224.08 92.3669 224.08C93.2469 224.08 93.9189 223.912 94.3829 223.576C94.8469 223.24 95.1349 222.768 95.2469 222.16H98.0549C97.8469 223.488 97.2389 224.504 96.2309 225.208C95.2229 225.896 93.9109 226.24 92.2949 226.24ZM95.2229 218.416C95.1429 217.328 94.8389 216.536 94.3109 216.04C93.7989 215.544 93.0869 215.296 92.1749 215.296C91.2949 215.296 90.5749 215.576 90.0149 216.136C89.4549 216.68 89.1029 217.44 88.9589 218.416H95.2229ZM100.697 213.448H103.601V215.464C103.777 215.16 104.001 214.872 104.273 214.6C104.545 214.328 104.857 214.088 105.209 213.88C105.577 213.672 105.969 213.504 106.385 213.376C106.801 213.248 107.241 213.184 107.705 213.184C108.489 213.184 109.217 213.328 109.889 213.616C110.577 213.904 111.169 214.32 111.665 214.864C112.161 215.408 112.553 216.08 112.841 216.88C113.129 217.664 113.273 218.56 113.273 219.568V219.76C113.273 220.768 113.129 221.672 112.841 222.472C112.569 223.272 112.185 223.952 111.689 224.512C111.209 225.072 110.625 225.504 109.937 225.808C109.265 226.096 108.521 226.24 107.705 226.24C106.697 226.24 105.841 226.024 105.137 225.592C104.449 225.16 103.937 224.64 103.601 224.032V230.296H100.697V213.448ZM106.985 223.936C108.057 223.936 108.873 223.592 109.433 222.904C110.009 222.2 110.297 221.168 110.297 219.808V219.616C110.297 218.928 110.209 218.328 110.033 217.816C109.873 217.288 109.641 216.848 109.337 216.496C109.033 216.144 108.681 215.888 108.281 215.728C107.881 215.552 107.441 215.464 106.961 215.464C105.953 215.464 105.121 215.808 104.465 216.496C103.825 217.168 103.505 218.208 103.505 219.616V219.808C103.505 221.216 103.817 222.256 104.441 222.928C105.081 223.6 105.929 223.936 106.985 223.936ZM121.596 226.24C120.636 226.24 119.756 226.088 118.956 225.784C118.172 225.48 117.492 225.016 116.916 224.392C116.356 223.768 115.924 222.976 115.62 222.016C115.316 221.056 115.164 219.912 115.164 218.584V217.696C115.164 216.304 115.284 215.016 115.524 213.832C115.78 212.648 116.188 211.616 116.748 210.736C117.308 209.856 118.052 209.152 118.98 208.624C119.908 208.096 121.06 207.8 122.436 207.736L123.204 207.712C124.116 207.664 124.868 207.608 125.46 207.544C126.068 207.48 126.556 207.384 126.924 207.256V209.536C126.556 209.696 126.092 209.824 125.532 209.92C124.988 210.016 124.196 210.096 123.156 210.16L122.532 210.208C121.652 210.256 120.9 210.432 120.276 210.736C119.668 211.024 119.164 211.424 118.764 211.936C118.364 212.432 118.052 213.04 117.828 213.76C117.62 214.464 117.476 215.256 117.396 216.136H117.516C117.932 215.32 118.524 214.656 119.292 214.144C120.06 213.632 121.044 213.376 122.244 213.376C123.108 213.376 123.9 213.536 124.62 213.856C125.34 214.16 125.948 214.592 126.444 215.152C126.956 215.712 127.348 216.376 127.62 217.144C127.908 217.912 128.052 218.744 128.052 219.64V219.784C128.052 220.792 127.884 221.696 127.548 222.496C127.228 223.28 126.78 223.952 126.204 224.512C125.628 225.072 124.94 225.504 124.14 225.808C123.356 226.096 122.508 226.24 121.596 226.24ZM121.62 223.984C122.708 223.984 123.556 223.624 124.164 222.904C124.772 222.168 125.076 221.136 125.076 219.808V219.712C125.076 218.432 124.796 217.44 124.236 216.736C123.676 216.016 122.844 215.656 121.74 215.656C120.62 215.656 119.74 216.024 119.1 216.76C118.46 217.48 118.14 218.488 118.14 219.784V219.904C118.14 221.152 118.444 222.144 119.052 222.88C119.66 223.616 120.516 223.984 121.62 223.984ZM136.193 226.24C135.265 226.24 134.409 226.096 133.625 225.808C132.857 225.504 132.185 225.08 131.609 224.536C131.049 223.976 130.609 223.304 130.289 222.52C129.985 221.736 129.833 220.848 129.833 219.856V219.664C129.833 218.688 129.985 217.808 130.289 217.024C130.609 216.224 131.049 215.544 131.609 214.984C132.169 214.408 132.825 213.968 133.577 213.664C134.345 213.344 135.177 213.184 136.073 213.184C136.857 213.184 137.601 213.304 138.305 213.544C139.025 213.784 139.657 214.16 140.201 214.672C140.745 215.184 141.177 215.84 141.497 216.64C141.833 217.44 142.001 218.4 142.001 219.52V220.36H132.809C132.857 221.56 133.169 222.48 133.745 223.12C134.337 223.76 135.177 224.08 136.265 224.08C137.145 224.08 137.817 223.912 138.281 223.576C138.745 223.24 139.033 222.768 139.145 222.16H141.953C141.745 223.488 141.137 224.504 140.129 225.208C139.121 225.896 137.809 226.24 136.193 226.24ZM139.121 218.416C139.041 217.328 138.737 216.536 138.209 216.04C137.697 215.544 136.985 215.296 136.073 215.296C135.193 215.296 134.473 215.576 133.913 216.136C133.353 216.68 133.001 217.44 132.857 218.416H139.121ZM153.739 216.64C153.739 217.312 153.547 217.904 153.163 218.416C152.795 218.912 152.227 219.24 151.459 219.4C152.323 219.544 153.003 219.848 153.499 220.312C153.995 220.776 154.243 221.408 154.243 222.208V222.28C154.243 222.856 154.123 223.384 153.883 223.864C153.643 224.344 153.299 224.76 152.851 225.112C152.403 225.464 151.859 225.744 151.219 225.952C150.579 226.144 149.867 226.24 149.083 226.24C147.403 226.24 146.107 225.856 145.195 225.088C144.299 224.32 143.787 223.248 143.659 221.872H146.323C146.451 222.56 146.723 223.096 147.139 223.48C147.555 223.848 148.195 224.032 149.059 224.032C149.811 224.032 150.363 223.88 150.715 223.576C151.067 223.256 151.243 222.816 151.243 222.256V222.184C151.243 221.08 150.531 220.528 149.107 220.528H147.379V218.584H148.867C149.523 218.584 149.995 218.456 150.283 218.2C150.587 217.944 150.739 217.552 150.739 217.024V216.952C150.739 216.52 150.595 216.168 150.307 215.896C150.035 215.608 149.563 215.464 148.891 215.464C147.675 215.464 146.923 216.048 146.635 217.216H143.995C144.075 216.496 144.267 215.88 144.571 215.368C144.875 214.856 145.251 214.44 145.699 214.12C146.147 213.8 146.651 213.568 147.211 213.424C147.787 213.264 148.387 213.184 149.011 213.184C149.683 213.184 150.307 213.264 150.883 213.424C151.459 213.568 151.955 213.784 152.371 214.072C152.803 214.36 153.139 214.72 153.379 215.152C153.619 215.568 153.739 216.04 153.739 216.568V216.64ZM162.516 223.984C163.604 223.984 164.452 223.616 165.06 222.88C165.668 222.128 165.972 221.104 165.972 219.808V219.64C165.972 218.344 165.668 217.328 165.06 216.592C164.452 215.84 163.604 215.464 162.516 215.464C161.428 215.464 160.572 215.832 159.948 216.568C159.34 217.304 159.036 218.32 159.036 219.616V219.808C159.036 221.104 159.34 222.128 159.948 222.88C160.556 223.616 161.412 223.984 162.516 223.984ZM162.492 226.24C161.564 226.24 160.708 226.088 159.924 225.784C159.14 225.48 158.46 225.048 157.884 224.488C157.308 223.928 156.86 223.256 156.54 222.472C156.22 221.688 156.06 220.816 156.06 219.856V219.664C156.06 218.688 156.22 217.808 156.54 217.024C156.876 216.224 157.332 215.544 157.908 214.984C158.484 214.408 159.164 213.968 159.948 213.664C160.732 213.344 161.588 213.184 162.516 213.184C163.428 213.184 164.276 213.336 165.06 213.64C165.844 213.944 166.524 214.384 167.1 214.96C167.676 215.52 168.124 216.192 168.444 216.976C168.78 217.76 168.948 218.632 168.948 219.592V219.784C168.948 220.76 168.78 221.648 168.444 222.448C168.124 223.232 167.676 223.912 167.1 224.488C166.524 225.048 165.844 225.48 165.06 225.784C164.276 226.088 163.42 226.24 162.492 226.24ZM179.444 215.608H174.476V226H171.572V213.448H182.348V226H179.444V215.608ZM189.086 226.24C188.51 226.24 187.966 226.168 187.454 226.024C186.942 225.88 186.494 225.664 186.11 225.376C185.742 225.072 185.446 224.688 185.222 224.224C184.998 223.744 184.886 223.176 184.886 222.52C184.886 221.784 185.054 221.168 185.39 220.672C185.726 220.16 186.182 219.752 186.758 219.448C187.334 219.128 188.014 218.896 188.798 218.752C189.582 218.608 190.422 218.536 191.318 218.536H192.878V217.888C192.878 217.04 192.71 216.408 192.374 215.992C192.054 215.576 191.462 215.368 190.598 215.368C189.83 215.368 189.254 215.544 188.87 215.896C188.502 216.232 188.278 216.712 188.198 217.336H185.39C185.454 216.6 185.638 215.976 185.942 215.464C186.246 214.936 186.638 214.504 187.118 214.168C187.598 213.832 188.15 213.584 188.774 213.424C189.398 213.264 190.062 213.184 190.766 213.184C191.47 213.184 192.126 213.264 192.734 213.424C193.342 213.568 193.87 213.824 194.318 214.192C194.782 214.544 195.142 215.016 195.398 215.608C195.654 216.184 195.782 216.904 195.782 217.768V226H192.926V224.464C192.51 225.008 192.006 225.44 191.414 225.76C190.822 226.08 190.046 226.24 189.086 226.24ZM189.782 224.152C190.678 224.152 191.414 223.936 191.99 223.504C192.582 223.056 192.878 222.424 192.878 221.608V220.36H191.39C190.286 220.36 189.406 220.512 188.75 220.816C188.094 221.104 187.766 221.632 187.766 222.4C187.766 222.928 187.918 223.352 188.222 223.672C188.542 223.992 189.062 224.152 189.782 224.152ZM204.607 226.24C203.711 226.24 202.871 226.096 202.087 225.808C201.319 225.52 200.647 225.104 200.071 224.56C199.511 224.016 199.071 223.352 198.751 222.568C198.431 221.784 198.271 220.888 198.271 219.88V219.688C198.271 218.696 198.431 217.8 198.751 217C199.087 216.2 199.543 215.52 200.119 214.96C200.695 214.384 201.367 213.944 202.135 213.64C202.903 213.336 203.727 213.184 204.607 213.184C205.295 213.184 205.967 213.272 206.623 213.448C207.279 213.608 207.863 213.872 208.375 214.24C208.903 214.608 209.343 215.096 209.695 215.704C210.047 216.296 210.263 217.024 210.343 217.888H207.535C207.407 217.04 207.087 216.432 206.575 216.064C206.063 215.696 205.423 215.512 204.655 215.512C204.159 215.512 203.703 215.608 203.287 215.8C202.871 215.976 202.511 216.248 202.207 216.616C201.903 216.968 201.663 217.4 201.487 217.912C201.327 218.424 201.247 219 201.247 219.64V219.832C201.247 221.208 201.559 222.248 202.183 222.952C202.807 223.656 203.655 224.008 204.727 224.008C205.111 224.008 205.471 223.952 205.807 223.84C206.159 223.728 206.471 223.56 206.743 223.336C207.015 223.112 207.239 222.832 207.415 222.496C207.591 222.16 207.703 221.768 207.751 221.32H210.415C210.367 222.04 210.191 222.704 209.887 223.312C209.599 223.904 209.207 224.424 208.711 224.872C208.215 225.304 207.615 225.64 206.911 225.88C206.223 226.12 205.455 226.24 204.607 226.24ZM221.028 220.672H215.82V226H212.916V213.448H215.82V218.512H221.028V213.448H223.932V226H221.028V220.672ZM232.992 223.984C234.08 223.984 234.928 223.616 235.536 222.88C236.144 222.128 236.448 221.104 236.448 219.808V219.64C236.448 218.344 236.144 217.328 235.536 216.592C234.928 215.84 234.08 215.464 232.992 215.464C231.904 215.464 231.048 215.832 230.424 216.568C229.816 217.304 229.512 218.32 229.512 219.616V219.808C229.512 221.104 229.816 222.128 230.424 222.88C231.032 223.616 231.888 223.984 232.992 223.984ZM232.968 226.24C232.04 226.24 231.184 226.088 230.4 225.784C229.616 225.48 228.936 225.048 228.36 224.488C227.784 223.928 227.336 223.256 227.016 222.472C226.696 221.688 226.536 220.816 226.536 219.856V219.664C226.536 218.688 226.696 217.808 227.016 217.024C227.352 216.224 227.808 215.544 228.384 214.984C228.96 214.408 229.64 213.968 230.424 213.664C231.208 213.344 232.064 213.184 232.992 213.184C233.904 213.184 234.752 213.336 235.536 213.64C236.32 213.944 237 214.384 237.576 214.96C238.152 215.52 238.6 216.192 238.92 216.976C239.256 217.76 239.424 218.632 239.424 219.592V219.784C239.424 220.76 239.256 221.648 238.92 222.448C238.6 223.232 238.152 223.912 237.576 224.488C237 225.048 236.32 225.48 235.536 225.784C234.752 226.088 233.896 226.24 232.968 226.24ZM247.544 226.24C246.648 226.24 245.808 226.096 245.024 225.808C244.256 225.52 243.584 225.104 243.008 224.56C242.448 224.016 242.008 223.352 241.688 222.568C241.368 221.784 241.208 220.888 241.208 219.88V219.688C241.208 218.696 241.368 217.8 241.688 217C242.024 216.2 242.48 215.52 243.056 214.96C243.632 214.384 244.304 213.944 245.072 213.64C245.84 213.336 246.664 213.184 247.544 213.184C248.232 213.184 248.904 213.272 249.56 213.448C250.216 213.608 250.8 213.872 251.312 214.24C251.84 214.608 252.28 215.096 252.632 215.704C252.984 216.296 253.2 217.024 253.28 217.888H250.472C250.344 217.04 250.024 216.432 249.512 216.064C249 215.696 248.36 215.512 247.592 215.512C247.096 215.512 246.64 215.608 246.224 215.8C245.808 215.976 245.448 216.248 245.144 216.616C244.84 216.968 244.6 217.4 244.424 217.912C244.264 218.424 244.184 219 244.184 219.64V219.832C244.184 221.208 244.496 222.248 245.12 222.952C245.744 223.656 246.592 224.008 247.664 224.008C248.048 224.008 248.408 223.952 248.744 223.84C249.096 223.728 249.408 223.56 249.68 223.336C249.952 223.112 250.176 222.832 250.352 222.496C250.528 222.16 250.64 221.768 250.688 221.32H253.352C253.304 222.04 253.128 222.704 252.824 223.312C252.536 223.904 252.144 224.424 251.648 224.872C251.152 225.304 250.552 225.64 249.848 225.88C249.16 226.12 248.392 226.24 247.544 226.24ZM265.237 215.608H261.397V226H258.493V215.608H254.653V213.448H265.237V215.608ZM267.501 213.448H270.405V217.576H272.661C273.365 217.576 274.013 217.664 274.605 217.84C275.197 218.016 275.701 218.288 276.117 218.656C276.549 219.008 276.885 219.448 277.125 219.976C277.365 220.504 277.485 221.12 277.485 221.824V221.896C277.485 222.6 277.365 223.216 277.125 223.744C276.901 224.256 276.573 224.68 276.141 225.016C275.709 225.352 275.189 225.6 274.581 225.76C273.989 225.92 273.325 226 272.589 226H267.501V213.448ZM272.229 223.912C273.045 223.912 273.637 223.744 274.005 223.408C274.373 223.072 274.557 222.56 274.557 221.872V221.8C274.557 220.392 273.781 219.688 272.229 219.688H270.405V223.912H272.229Z" fill="white"/>
<defs>
<filter id="filter0_d" x="0" y="0" width="336" height="306" filterUnits="userSpaceOnUse" color-interpolation-filters="sRGB">
<feFlood flood-opacity="0" result="BackgroundImageFix"/>
<feColorMatrix in="SourceAlpha" type="matrix" values="0 0 0 0 0 0 0 0 0 0 0 0 0 0 0 0 0 0 127 0"/>
<feOffset dy="4"/>
<feGaussianBlur stdDeviation="8"/>
<feColorMatrix type="matrix" values="0 0 0 0 0 0 0 0 0 0 0 0 0 0 0 0 0 0 0.12 0"/>
<feBlend mode="normal" in2="BackgroundImageFix" result="effect1_dropShadow"/>
<feBlend mode="normal" in="SourceGraphic" in2="effect1_dropShadow" result="shape"/>
</filter>
<filter id="filter1_d" x="33" y="21" width="128" height="128" filterUnits="userSpaceOnUse" color-interpolation-filters="sRGB">
<feFlood flood-opacity="0" result="BackgroundImageFix"/>
<feColorMatrix in="SourceAlpha" type="matrix" values="0 0 0 0 0 0 0 0 0 0 0 0 0 0 0 0 0 0 127 0"/>
<feOffset dy="4"/>
<feGaussianBlur stdDeviation="8"/>
<feColorMatrix type="matrix" values="0 0 0 0 0 0 0 0 0 0 0 0 0 0 0 0 0 0 0.12 0"/>
<feBlend mode="normal" in2="BackgroundImageFix" result="effect1_dropShadow"/>
<feBlend mode="normal" in="SourceGraphic" in2="effect1_dropShadow" result="shape"/>
</filter>
</defs>
</svg>
