<svg width="336" height="306" viewBox="0 0 336 306" fill="none" xmlns="http://www.w3.org/2000/svg">
<g filter="url(#filter0_d)">
<rect x="16" y="12" width="304" height="274" rx="1" fill="#203FAD"/>
</g>
<g filter="url(#filter1_d)">
<rect x="49" y="33" width="96" height="96" rx="1" fill="white"/>
</g>
<rect opacity="0.3" x="96.8074" y="72.8074" width="64.5166" height="64.5166" rx="1" fill="#7C8AD4"/>
<path d="M41.968 226V208.84H45.184V221.704L53.152 208.84H56.368V226H53.152V213.064L45.184 226H41.968ZM68.1447 220.672H62.9367V226H60.0327V213.448H62.9367V218.512H68.1447V213.448H71.0487V226H68.1447V220.672ZM83.8776 215.608H80.0376V226H77.1336V215.608H73.2936V213.448H83.8776V215.608ZM91.3105 226.24C90.3825 226.24 89.5265 226.096 88.7425 225.808C87.9745 225.504 87.3025 225.08 86.7265 224.536C86.1665 223.976 85.7265 223.304 85.4065 222.52C85.1025 221.736 84.9505 220.848 84.9505 219.856V219.664C84.9505 218.688 85.1025 217.808 85.4065 217.024C85.7265 216.224 86.1665 215.544 86.7265 214.984C87.2865 214.408 87.9425 213.968 88.6945 213.664C89.4625 213.344 90.2945 213.184 91.1905 213.184C91.9745 213.184 92.7185 213.304 93.4225 213.544C94.1425 213.784 94.7745 214.16 95.3185 214.672C95.8625 215.184 96.2945 215.84 96.6145 216.64C96.9505 217.44 97.1185 218.4 97.1185 219.52V220.36H87.9265C87.9745 221.56 88.2865 222.48 88.8625 223.12C89.4545 223.76 90.2945 224.08 91.3825 224.08C92.2625 224.08 92.9345 223.912 93.3985 223.576C93.8625 223.24 94.1505 222.768 94.2625 222.16H97.0705C96.8625 223.488 96.2545 224.504 95.2465 225.208C94.2385 225.896 92.9265 226.24 91.3105 226.24ZM94.2385 218.416C94.1585 217.328 93.8545 216.536 93.3265 216.04C92.8145 215.544 92.1025 215.296 91.1905 215.296C90.3105 215.296 89.5905 215.576 89.0305 216.136C88.4705 216.68 88.1185 217.44 87.9745 218.416H94.2385ZM102.616 215.608V226H99.7124V213.448H108.088V215.608H102.616ZM110.4 213.448H113.304V215.464C113.48 215.16 113.704 214.872 113.976 214.6C114.248 214.328 114.56 214.088 114.912 213.88C115.28 213.672 115.672 213.504 116.088 213.376C116.504 213.248 116.944 213.184 117.408 213.184C118.192 213.184 118.92 213.328 119.592 213.616C120.28 213.904 120.872 214.32 121.368 214.864C121.864 215.408 122.256 216.08 122.544 216.88C122.832 217.664 122.976 218.56 122.976 219.568V219.76C122.976 220.768 122.832 221.672 122.544 222.472C122.272 223.272 121.888 223.952 121.392 224.512C120.912 225.072 120.328 225.504 119.64 225.808C118.968 226.096 118.224 226.24 117.408 226.24C116.4 226.24 115.544 226.024 114.84 225.592C114.152 225.16 113.64 224.64 113.304 224.032V230.296H110.4V213.448ZM116.688 223.936C117.76 223.936 118.576 223.592 119.136 222.904C119.712 222.2 120 221.168 120 219.808V219.616C120 218.928 119.912 218.328 119.736 217.816C119.576 217.288 119.344 216.848 119.04 216.496C118.736 216.144 118.384 215.888 117.984 215.728C117.584 215.552 117.144 215.464 116.664 215.464C115.656 215.464 114.824 215.808 114.168 216.496C113.528 217.168 113.208 218.208 113.208 219.616V219.808C113.208 221.216 113.52 222.256 114.144 222.928C114.784 223.6 115.632 223.936 116.688 223.936ZM128.875 226.24C128.299 226.24 127.755 226.168 127.243 226.024C126.731 225.88 126.283 225.664 125.899 225.376C125.531 225.072 125.235 224.688 125.011 224.224C124.787 223.744 124.675 223.176 124.675 222.52C124.675 221.784 124.843 221.168 125.179 220.672C125.515 220.16 125.971 219.752 126.547 219.448C127.123 219.128 127.803 218.896 128.587 218.752C129.371 218.608 130.211 218.536 131.107 218.536H132.667V217.888C132.667 217.04 132.499 216.408 132.163 215.992C131.843 215.576 131.251 215.368 130.387 215.368C129.619 215.368 129.043 215.544 128.659 215.896C128.291 216.232 128.067 216.712 127.987 217.336H125.179C125.243 216.6 125.427 215.976 125.731 215.464C126.035 214.936 126.427 214.504 126.907 214.168C127.387 213.832 127.939 213.584 128.563 213.424C129.187 213.264 129.851 213.184 130.555 213.184C131.259 213.184 131.915 213.264 132.523 213.424C133.131 213.568 133.659 213.824 134.107 214.192C134.571 214.544 134.931 215.016 135.187 215.608C135.443 216.184 135.571 216.904 135.571 217.768V226H132.715V224.464C132.299 225.008 131.795 225.44 131.203 225.76C130.611 226.08 129.835 226.24 128.875 226.24ZM129.571 224.152C130.467 224.152 131.203 223.936 131.779 223.504C132.371 223.056 132.667 222.424 132.667 221.608V220.36H131.179C130.075 220.36 129.195 220.512 128.539 220.816C127.883 221.104 127.555 221.632 127.555 222.4C127.555 222.928 127.707 223.352 128.011 223.672C128.331 223.992 128.851 224.152 129.571 224.152ZM149.076 229.048L148.932 226H138.9V213.448H141.804V223.84H146.772V213.448H149.676V223.84H151.5V229.048H149.076ZM153.619 226V213.448H156.523V222.328L161.947 213.448H164.827V226H161.947V217.12L156.523 226H153.619ZM172.997 215.56C171.445 215.56 170.669 216.192 170.669 217.456V217.528C170.669 218.152 170.845 218.624 171.197 218.944C171.565 219.248 172.165 219.4 172.997 219.4H174.773V215.56H172.997ZM170.069 226H166.877L170.309 220.84C169.573 220.616 168.957 220.248 168.461 219.736C167.981 219.208 167.741 218.464 167.741 217.504V217.432C167.741 216.12 168.181 215.128 169.061 214.456C169.941 213.784 171.125 213.448 172.613 213.448H177.653V226H174.773V221.392H173.045L170.069 226Z" fill="white"/>
<defs>
<filter id="filter0_d" x="0" y="0" width="336" height="306" filterUnits="userSpaceOnUse" color-interpolation-filters="sRGB">
<feFlood flood-opacity="0" result="BackgroundImageFix"/>
<feColorMatrix in="SourceAlpha" type="matrix" values="0 0 0 0 0 0 0 0 0 0 0 0 0 0 0 0 0 0 127 0"/>
<feOffset dy="4"/>
<feGaussianBlur stdDeviation="8"/>
<feColorMatrix type="matrix" values="0 0 0 0 0 0 0 0 0 0 0 0 0 0 0 0 0 0 0.12 0"/>
<feBlend mode="normal" in2="BackgroundImageFix" result="effect1_dropShadow"/>
<feBlend mode="normal" in="SourceGraphic" in2="effect1_dropShadow" result="shape"/>
</filter>
<filter id="filter1_d" x="33" y="21" width="128" height="128" filterUnits="userSpaceOnUse" color-interpolation-filters="sRGB">
<feFlood flood-opacity="0" result="BackgroundImageFix"/>
<feColorMatrix in="SourceAlpha" type="matrix" values="0 0 0 0 0 0 0 0 0 0 0 0 0 0 0 0 0 0 127 0"/>
<feOffset dy="4"/>
<feGaussianBlur stdDeviation="8"/>
<feColorMatrix type="matrix" values="0 0 0 0 0 0 0 0 0 0 0 0 0 0 0 0 0 0 0.12 0"/>
<feBlend mode="normal" in2="BackgroundImageFix" result="effect1_dropShadow"/>
<feBlend mode="normal" in="SourceGraphic" in2="effect1_dropShadow" result="shape"/>
</filter>
</defs>
</svg>
