<svg width="336" height="306" viewBox="0 0 336 306" fill="none" xmlns="http://www.w3.org/2000/svg">
<g filter="url(#filter0_d)">
<rect x="16" y="12" width="304" height="274" rx="1" fill="#21973B"/>
</g>
<g filter="url(#filter1_d)">
<rect x="36" y="33" width="96" height="96" rx="1" fill="white"/>
</g>
<rect opacity="0.3" x="83.8076" y="72.8074" width="64.5166" height="64.5166" rx="1" fill="#12C619"/>
<path d="M37.968 202.84H48.36V205.408H41.184V220H37.968V202.84ZM54.6152 220.24C53.6872 220.24 52.8312 220.096 52.0472 219.808C51.2792 219.504 50.6072 219.08 50.0312 218.536C49.4712 217.976 49.0312 217.304 48.7112 216.52C48.4072 215.736 48.2552 214.848 48.2552 213.856V213.664C48.2552 212.688 48.4072 211.808 48.7112 211.024C49.0312 210.224 49.4712 209.544 50.0312 208.984C50.5912 208.408 51.2472 207.968 51.9992 207.664C52.7672 207.344 53.5992 207.184 54.4952 207.184C55.2792 207.184 56.0232 207.304 56.7272 207.544C57.4472 207.784 58.0792 208.16 58.6232 208.672C59.1672 209.184 59.5992 209.84 59.9192 210.64C60.2552 211.44 60.4232 212.4 60.4232 213.52V214.36H51.2312C51.2792 215.56 51.5912 216.48 52.1672 217.12C52.7592 217.76 53.5992 218.08 54.6872 218.08C55.5672 218.08 56.2392 217.912 56.7032 217.576C57.1672 217.24 57.4552 216.768 57.5672 216.16H60.3752C60.1672 217.488 59.5592 218.504 58.5512 219.208C57.5432 219.896 56.2312 220.24 54.6152 220.24ZM57.5432 212.416C57.4632 211.328 57.1592 210.536 56.6312 210.04C56.1192 209.544 55.4072 209.296 54.4952 209.296C53.6152 209.296 52.8952 209.576 52.3352 210.136C51.7752 210.68 51.4232 211.44 51.2792 212.416H57.5432ZM68.6331 217.984C69.7211 217.984 70.5691 217.616 71.1771 216.88C71.7851 216.128 72.0891 215.104 72.0891 213.808V213.64C72.0891 212.344 71.7851 211.328 71.1771 210.592C70.5691 209.84 69.7211 209.464 68.6331 209.464C67.5451 209.464 66.6891 209.832 66.0651 210.568C65.4571 211.304 65.1531 212.32 65.1531 213.616V213.808C65.1531 215.104 65.4571 216.128 66.0651 216.88C66.6731 217.616 67.5291 217.984 68.6331 217.984ZM68.6091 220.24C67.6811 220.24 66.8251 220.088 66.0411 219.784C65.2571 219.48 64.5771 219.048 64.0011 218.488C63.4251 217.928 62.9771 217.256 62.6571 216.472C62.3371 215.688 62.1771 214.816 62.1771 213.856V213.664C62.1771 212.688 62.3371 211.808 62.6571 211.024C62.9931 210.224 63.4491 209.544 64.0251 208.984C64.6011 208.408 65.2811 207.968 66.0651 207.664C66.8491 207.344 67.7051 207.184 68.6331 207.184C69.5451 207.184 70.3931 207.336 71.1771 207.64C71.9611 207.944 72.6411 208.384 73.2171 208.96C73.7931 209.52 74.2411 210.192 74.5611 210.976C74.8971 211.76 75.0651 212.632 75.0651 213.592V213.784C75.0651 214.76 74.8971 215.648 74.5611 216.448C74.2411 217.232 73.7931 217.912 73.2171 218.488C72.6411 219.048 71.9611 219.48 71.1771 219.784C70.3931 220.088 69.5371 220.24 68.6091 220.24ZM77.6889 220V207.448H80.5929V216.328L86.0169 207.448H88.8969V220H86.0169V211.12L80.5929 220H77.6889ZM100.356 214.672H95.1476V220H92.2436V207.448H95.1476V212.512H100.356V207.448H103.26V220H100.356V214.672ZM115.441 207.208C116.369 207.256 117.233 207.424 118.033 207.712C118.833 208 119.529 208.416 120.121 208.96C120.713 209.488 121.177 210.136 121.513 210.904C121.865 211.672 122.041 212.56 122.041 213.568V213.76C122.041 214.768 121.865 215.664 121.513 216.448C121.177 217.232 120.713 217.896 120.121 218.44C119.529 218.984 118.833 219.408 118.033 219.712C117.233 220.016 116.369 220.184 115.441 220.216V224.296H112.585V220.216C111.657 220.168 110.785 220 109.969 219.712C109.169 219.424 108.473 219.016 107.881 218.488C107.289 217.96 106.817 217.312 106.465 216.544C106.129 215.76 105.961 214.864 105.961 213.856V213.664C105.961 212.656 106.129 211.76 106.465 210.976C106.817 210.192 107.289 209.528 107.881 208.984C108.473 208.44 109.169 208.024 109.969 207.736C110.785 207.432 111.657 207.256 112.585 207.208V201.64H115.441V207.208ZM115.441 218.104C116.529 218.04 117.409 217.64 118.081 216.904C118.753 216.168 119.089 215.144 119.089 213.832V213.664C119.089 212.304 118.753 211.264 118.081 210.544C117.425 209.808 116.545 209.408 115.441 209.344V218.104ZM112.585 209.344C111.481 209.392 110.593 209.784 109.921 210.52C109.249 211.256 108.913 212.28 108.913 213.592V213.784C108.913 215.144 109.249 216.184 109.921 216.904C110.593 217.624 111.481 218.016 112.585 218.08V209.344ZM130.367 217.984C131.455 217.984 132.303 217.616 132.911 216.88C133.519 216.128 133.823 215.104 133.823 213.808V213.64C133.823 212.344 133.519 211.328 132.911 210.592C132.303 209.84 131.455 209.464 130.367 209.464C129.279 209.464 128.423 209.832 127.799 210.568C127.191 211.304 126.887 212.32 126.887 213.616V213.808C126.887 215.104 127.191 216.128 127.799 216.88C128.407 217.616 129.263 217.984 130.367 217.984ZM130.343 220.24C129.415 220.24 128.559 220.088 127.775 219.784C126.991 219.48 126.311 219.048 125.735 218.488C125.159 217.928 124.711 217.256 124.391 216.472C124.071 215.688 123.911 214.816 123.911 213.856V213.664C123.911 212.688 124.071 211.808 124.391 211.024C124.727 210.224 125.183 209.544 125.759 208.984C126.335 208.408 127.015 207.968 127.799 207.664C128.583 207.344 129.439 207.184 130.367 207.184C131.279 207.184 132.127 207.336 132.911 207.64C133.695 207.944 134.375 208.384 134.951 208.96C135.527 209.52 135.975 210.192 136.295 210.976C136.631 211.76 136.799 212.632 136.799 213.592V213.784C136.799 214.76 136.631 215.648 136.295 216.448C135.975 217.232 135.527 217.912 134.951 218.488C134.375 219.048 133.695 219.48 132.911 219.784C132.127 220.088 131.271 220.24 130.343 220.24ZM139.423 207.448H142.327V209.464C142.503 209.16 142.727 208.872 142.999 208.6C143.271 208.328 143.583 208.088 143.935 207.88C144.303 207.672 144.695 207.504 145.111 207.376C145.527 207.248 145.967 207.184 146.431 207.184C147.215 207.184 147.943 207.328 148.615 207.616C149.303 207.904 149.895 208.32 150.391 208.864C150.887 209.408 151.279 210.08 151.567 210.88C151.855 211.664 151.999 212.56 151.999 213.568V213.76C151.999 214.768 151.855 215.672 151.567 216.472C151.295 217.272 150.911 217.952 150.415 218.512C149.935 219.072 149.351 219.504 148.663 219.808C147.991 220.096 147.247 220.24 146.431 220.24C145.423 220.24 144.567 220.024 143.863 219.592C143.175 219.16 142.663 218.64 142.327 218.032V224.296H139.423V207.448ZM145.711 217.936C146.783 217.936 147.599 217.592 148.159 216.904C148.735 216.2 149.023 215.168 149.023 213.808V213.616C149.023 212.928 148.935 212.328 148.759 211.816C148.599 211.288 148.367 210.848 148.063 210.496C147.759 210.144 147.407 209.888 147.007 209.728C146.607 209.552 146.167 209.464 145.687 209.464C144.679 209.464 143.847 209.808 143.191 210.496C142.551 211.168 142.231 212.208 142.231 213.616V213.808C142.231 215.216 142.543 216.256 143.167 216.928C143.807 217.6 144.655 217.936 145.711 217.936ZM157.107 210.52V220H154.611V207.448H158.619L161.763 215.272L164.931 207.448H168.699V220H165.843V210.52L161.883 220H160.923L157.107 210.52ZM175.454 220.24C174.878 220.24 174.334 220.168 173.822 220.024C173.31 219.88 172.862 219.664 172.478 219.376C172.11 219.072 171.814 218.688 171.59 218.224C171.366 217.744 171.254 217.176 171.254 216.52C171.254 215.784 171.422 215.168 171.758 214.672C172.094 214.16 172.55 213.752 173.126 213.448C173.702 213.128 174.382 212.896 175.166 212.752C175.95 212.608 176.79 212.536 177.686 212.536H179.246V211.888C179.246 211.04 179.078 210.408 178.742 209.992C178.422 209.576 177.83 209.368 176.966 209.368C176.198 209.368 175.622 209.544 175.238 209.896C174.87 210.232 174.646 210.712 174.566 211.336H171.758C171.822 210.6 172.006 209.976 172.31 209.464C172.614 208.936 173.006 208.504 173.486 208.168C173.966 207.832 174.518 207.584 175.142 207.424C175.766 207.264 176.43 207.184 177.134 207.184C177.838 207.184 178.494 207.264 179.102 207.424C179.71 207.568 180.238 207.824 180.686 208.192C181.15 208.544 181.51 209.016 181.766 209.608C182.022 210.184 182.15 210.904 182.15 211.768V220H179.294V218.464C178.878 219.008 178.374 219.44 177.782 219.76C177.19 220.08 176.414 220.24 175.454 220.24ZM176.15 218.152C177.046 218.152 177.782 217.936 178.358 217.504C178.95 217.056 179.246 216.424 179.246 215.608V214.36H177.758C176.654 214.36 175.774 214.512 175.118 214.816C174.462 215.104 174.134 215.632 174.134 216.4C174.134 216.928 174.286 217.352 174.59 217.672C174.91 217.992 175.43 218.152 176.15 218.152ZM195.654 223.048L195.51 220H185.478V207.448H188.382V217.84H193.35V207.448H196.254V217.84H198.078V223.048H195.654ZM200.197 220V207.448H203.101V216.328L208.525 207.448H211.405V220H208.525V211.12L203.101 220H200.197ZM220.367 217.984C221.455 217.984 222.303 217.616 222.911 216.88C223.519 216.128 223.823 215.104 223.823 213.808V213.64C223.823 212.344 223.519 211.328 222.911 210.592C222.303 209.84 221.455 209.464 220.367 209.464C219.279 209.464 218.423 209.832 217.799 210.568C217.191 211.304 216.887 212.32 216.887 213.616V213.808C216.887 215.104 217.191 216.128 217.799 216.88C218.407 217.616 219.263 217.984 220.367 217.984ZM220.343 220.24C219.415 220.24 218.559 220.088 217.775 219.784C216.991 219.48 216.311 219.048 215.735 218.488C215.159 217.928 214.711 217.256 214.391 216.472C214.071 215.688 213.911 214.816 213.911 213.856V213.664C213.911 212.688 214.071 211.808 214.391 211.024C214.727 210.224 215.183 209.544 215.759 208.984C216.335 208.408 217.015 207.968 217.799 207.664C218.583 207.344 219.439 207.184 220.367 207.184C221.279 207.184 222.127 207.336 222.911 207.64C223.695 207.944 224.375 208.384 224.951 208.96C225.527 209.52 225.975 210.192 226.295 210.976C226.631 211.76 226.799 212.632 226.799 213.592V213.784C226.799 214.76 226.631 215.648 226.295 216.448C225.975 217.232 225.527 217.912 224.951 218.488C224.375 219.048 223.695 219.48 222.911 219.784C222.127 220.088 221.271 220.24 220.343 220.24ZM237.535 214.672H232.327V220H229.423V207.448H232.327V212.512H237.535V207.448H240.439V220H237.535V214.672ZM251.996 214.672H246.788V220H243.884V207.448H246.788V212.512H251.996V207.448H254.9V220H251.996V214.672ZM269.601 207.448H272.505V220H269.601V207.448ZM258.345 207.448H261.249V211.576H263.385C264.089 211.576 264.737 211.664 265.329 211.84C265.921 212 266.425 212.256 266.841 212.608C267.273 212.944 267.609 213.376 267.849 213.904C268.089 214.432 268.209 215.048 268.209 215.752V215.824C268.209 217.216 267.761 218.264 266.865 218.968C265.969 219.656 264.785 220 263.313 220H258.345V207.448ZM262.977 217.888C263.777 217.888 264.361 217.728 264.729 217.408C265.113 217.072 265.305 216.536 265.305 215.8V215.728C265.305 215.056 265.121 214.552 264.753 214.216C264.401 213.864 263.809 213.688 262.977 213.688H261.249V217.888H262.977ZM281.49 220.24C280.562 220.24 279.706 220.096 278.922 219.808C278.154 219.504 277.482 219.08 276.906 218.536C276.346 217.976 275.906 217.304 275.586 216.52C275.282 215.736 275.13 214.848 275.13 213.856V213.664C275.13 212.688 275.282 211.808 275.586 211.024C275.906 210.224 276.346 209.544 276.906 208.984C277.466 208.408 278.122 207.968 278.874 207.664C279.642 207.344 280.474 207.184 281.37 207.184C282.154 207.184 282.898 207.304 283.602 207.544C284.322 207.784 284.954 208.16 285.498 208.672C286.042 209.184 286.474 209.84 286.794 210.64C287.13 211.44 287.298 212.4 287.298 213.52V214.36H278.106C278.154 215.56 278.466 216.48 279.042 217.12C279.634 217.76 280.474 218.08 281.562 218.08C282.442 218.08 283.114 217.912 283.578 217.576C284.042 217.24 284.33 216.768 284.442 216.16H287.25C287.042 217.488 286.434 218.504 285.426 219.208C284.418 219.896 283.106 220.24 281.49 220.24ZM284.418 212.416C284.338 211.328 284.034 210.536 283.506 210.04C282.994 209.544 282.282 209.296 281.37 209.296C280.49 209.296 279.77 209.576 279.21 210.136C278.65 210.68 278.298 211.44 278.154 212.416H284.418ZM43.224 244.24C42.328 244.24 41.488 244.096 40.704 243.808C39.936 243.52 39.264 243.104 38.688 242.56C38.128 242.016 37.688 241.352 37.368 240.568C37.048 239.784 36.888 238.888 36.888 237.88V237.688C36.888 236.696 37.048 235.8 37.368 235C37.704 234.2 38.16 233.52 38.736 232.96C39.312 232.384 39.984 231.944 40.752 231.64C41.52 231.336 42.344 231.184 43.224 231.184C43.912 231.184 44.584 231.272 45.24 231.448C45.896 231.608 46.48 231.872 46.992 232.24C47.52 232.608 47.96 233.096 48.312 233.704C48.664 234.296 48.88 235.024 48.96 235.888H46.152C46.024 235.04 45.704 234.432 45.192 234.064C44.68 233.696 44.04 233.512 43.272 233.512C42.776 233.512 42.32 233.608 41.904 233.8C41.488 233.976 41.128 234.248 40.824 234.616C40.52 234.968 40.28 235.4 40.104 235.912C39.944 236.424 39.864 237 39.864 237.64V237.832C39.864 239.208 40.176 240.248 40.8 240.952C41.424 241.656 42.272 242.008 43.344 242.008C43.728 242.008 44.088 241.952 44.424 241.84C44.776 241.728 45.088 241.56 45.36 241.336C45.632 241.112 45.856 240.832 46.032 240.496C46.208 240.16 46.32 239.768 46.368 239.32H49.032C48.984 240.04 48.808 240.704 48.504 241.312C48.216 241.904 47.824 242.424 47.328 242.872C46.832 243.304 46.232 243.64 45.528 243.88C44.84 244.12 44.072 244.24 43.224 244.24ZM51.5327 244V231.448H54.4367V240.328L59.8607 231.448H62.7407V244H59.8607V235.12L54.4367 244H51.5327ZM71.5834 244.24C70.6874 244.24 69.8474 244.096 69.0634 243.808C68.2954 243.52 67.6234 243.104 67.0474 242.56C66.4874 242.016 66.0474 241.352 65.7274 240.568C65.4074 239.784 65.2474 238.888 65.2474 237.88V237.688C65.2474 236.696 65.4074 235.8 65.7274 235C66.0634 234.2 66.5194 233.52 67.0954 232.96C67.6714 232.384 68.3434 231.944 69.1114 231.64C69.8794 231.336 70.7034 231.184 71.5834 231.184C72.2714 231.184 72.9434 231.272 73.5994 231.448C74.2554 231.608 74.8394 231.872 75.3514 232.24C75.8794 232.608 76.3194 233.096 76.6714 233.704C77.0234 234.296 77.2394 235.024 77.3194 235.888H74.5114C74.3834 235.04 74.0634 234.432 73.5514 234.064C73.0394 233.696 72.3994 233.512 71.6314 233.512C71.1354 233.512 70.6794 233.608 70.2634 233.8C69.8474 233.976 69.4874 234.248 69.1834 234.616C68.8794 234.968 68.6394 235.4 68.4634 235.912C68.3034 236.424 68.2234 237 68.2234 237.64V237.832C68.2234 239.208 68.5354 240.248 69.1594 240.952C69.7834 241.656 70.6314 242.008 71.7034 242.008C72.0874 242.008 72.4474 241.952 72.7834 241.84C73.1354 241.728 73.4474 241.56 73.7194 241.336C73.9914 241.112 74.2154 240.832 74.3914 240.496C74.5674 240.16 74.6794 239.768 74.7274 239.32H77.3914C77.3434 240.04 77.1674 240.704 76.8634 241.312C76.5754 241.904 76.1834 242.424 75.6874 242.872C75.1914 243.304 74.5914 243.64 73.8874 243.88C73.1994 244.12 72.4314 244.24 71.5834 244.24ZM89.2761 233.608H85.4361V244H82.5321V233.608H78.6921V231.448H89.2761V233.608ZM96.7089 244.24C95.7809 244.24 94.9249 244.096 94.1409 243.808C93.3729 243.504 92.7009 243.08 92.1249 242.536C91.5649 241.976 91.1249 241.304 90.8049 240.52C90.5009 239.736 90.3489 238.848 90.3489 237.856V237.664C90.3489 236.688 90.5009 235.808 90.8049 235.024C91.1249 234.224 91.5649 233.544 92.1249 232.984C92.6849 232.408 93.3409 231.968 94.0929 231.664C94.8609 231.344 95.6929 231.184 96.5889 231.184C97.3729 231.184 98.1169 231.304 98.8209 231.544C99.5409 231.784 100.173 232.16 100.717 232.672C101.261 233.184 101.693 233.84 102.013 234.64C102.349 235.44 102.517 236.4 102.517 237.52V238.36H93.3249C93.3729 239.56 93.6849 240.48 94.2609 241.12C94.8529 241.76 95.6929 242.08 96.7809 242.08C97.6609 242.08 98.3329 241.912 98.7969 241.576C99.2609 241.24 99.5489 240.768 99.6609 240.16H102.469C102.261 241.488 101.653 242.504 100.645 243.208C99.6369 243.896 98.3249 244.24 96.7089 244.24ZM99.6369 236.416C99.5569 235.328 99.2529 234.536 98.7249 234.04C98.2129 233.544 97.5009 233.296 96.5889 233.296C95.7089 233.296 94.9889 233.576 94.4289 234.136C93.8689 234.68 93.5169 235.44 93.3729 236.416H99.6369ZM107.607 234.52V244H105.111V231.448H109.119L112.263 239.272L115.431 231.448H119.199V244H116.343V234.52L112.383 244H111.423L107.607 234.52ZM133.922 231.448H136.826V244H133.922V231.448ZM122.666 231.448H125.57V235.576H127.706C128.41 235.576 129.058 235.664 129.65 235.84C130.242 236 130.746 236.256 131.162 236.608C131.594 236.944 131.93 237.376 132.17 237.904C132.41 238.432 132.53 239.048 132.53 239.752V239.824C132.53 241.216 132.082 242.264 131.186 242.968C130.29 243.656 129.106 244 127.634 244H122.666V231.448ZM127.298 241.888C128.098 241.888 128.682 241.728 129.05 241.408C129.434 241.072 129.626 240.536 129.626 239.8V239.728C129.626 239.056 129.442 238.552 129.074 238.216C128.722 237.864 128.13 237.688 127.298 237.688H125.57V241.888H127.298Z" fill="white"/>
<defs>
<filter id="filter0_d" x="0" y="0" width="336" height="306" filterUnits="userSpaceOnUse" color-interpolation-filters="sRGB">
<feFlood flood-opacity="0" result="BackgroundImageFix"/>
<feColorMatrix in="SourceAlpha" type="matrix" values="0 0 0 0 0 0 0 0 0 0 0 0 0 0 0 0 0 0 127 0"/>
<feOffset dy="4"/>
<feGaussianBlur stdDeviation="8"/>
<feColorMatrix type="matrix" values="0 0 0 0 0 0 0 0 0 0 0 0 0 0 0 0 0 0 0.12 0"/>
<feBlend mode="normal" in2="BackgroundImageFix" result="effect1_dropShadow"/>
<feBlend mode="normal" in="SourceGraphic" in2="effect1_dropShadow" result="shape"/>
</filter>
<filter id="filter1_d" x="20" y="21" width="128" height="128" filterUnits="userSpaceOnUse" color-interpolation-filters="sRGB">
<feFlood flood-opacity="0" result="BackgroundImageFix"/>
<feColorMatrix in="SourceAlpha" type="matrix" values="0 0 0 0 0 0 0 0 0 0 0 0 0 0 0 0 0 0 127 0"/>
<feOffset dy="4"/>
<feGaussianBlur stdDeviation="8"/>
<feColorMatrix type="matrix" values="0 0 0 0 0 0 0 0 0 0 0 0 0 0 0 0 0 0 0.12 0"/>
<feBlend mode="normal" in2="BackgroundImageFix" result="effect1_dropShadow"/>
<feBlend mode="normal" in="SourceGraphic" in2="effect1_dropShadow" result="shape"/>
</filter>
</defs>
</svg>
