<svg width="336" height="306" viewBox="0 0 336 306" fill="none" xmlns="http://www.w3.org/2000/svg">
<g filter="url(#filter0_d)">
<rect x="16" y="12" width="304" height="274" rx="1" fill="#634EE9"/>
</g>
<g filter="url(#filter1_d)">
<rect x="49" y="33" width="96" height="96" rx="1" fill="white"/>
</g>
<rect opacity="0.3" x="96.8074" y="72.8074" width="64.5166" height="64.5166" rx="1" fill="#7C8AD4"/>
<path d="M42.064 208.84H45.28V226H42.064V208.84ZM52.8531 211.36H48.0771V208.84H60.8451V211.36H56.0691V226H52.8531V211.36ZM76.8316 226.24C75.4876 226.24 74.2956 226.032 73.2556 225.616C72.2156 225.2 71.3356 224.616 70.6156 223.864C69.9116 223.112 69.3756 222.2 69.0076 221.128C68.6396 220.056 68.4556 218.856 68.4556 217.528V217.336C68.4556 216.04 68.6636 214.856 69.0796 213.784C69.4956 212.712 70.0716 211.792 70.8076 211.024C71.5596 210.256 72.4396 209.656 73.4476 209.224C74.4716 208.792 75.5836 208.576 76.7836 208.576C77.7596 208.576 78.6716 208.704 79.5196 208.96C80.3836 209.2 81.1436 209.568 81.7996 210.064C82.4556 210.56 82.9836 211.184 83.3836 211.936C83.7996 212.688 84.0556 213.568 84.1516 214.576H80.9116C80.7356 213.424 80.3196 212.56 79.6636 211.984C79.0076 211.408 78.0556 211.12 76.8076 211.12C76.0556 211.12 75.3676 211.264 74.7436 211.552C74.1356 211.84 73.6156 212.248 73.1836 212.776C72.7516 213.304 72.4156 213.952 72.1756 214.72C71.9356 215.488 71.8156 216.352 71.8156 217.312V217.504C71.8156 219.44 72.2476 220.952 73.1116 222.04C73.9916 223.112 75.2316 223.648 76.8316 223.648C78.0316 223.648 79.0156 223.352 79.7836 222.76C80.5676 222.152 81.0476 221.24 81.2236 220.024H84.3436C84.2156 221.064 83.9436 221.976 83.5276 222.76C83.1116 223.528 82.5756 224.168 81.9196 224.68C81.2796 225.192 80.5276 225.584 79.6636 225.856C78.7996 226.112 77.8556 226.24 76.8316 226.24ZM92.3886 226.24C91.4606 226.24 90.6046 226.096 89.8206 225.808C89.0526 225.504 88.3806 225.08 87.8046 224.536C87.2446 223.976 86.8046 223.304 86.4846 222.52C86.1806 221.736 86.0286 220.848 86.0286 219.856V219.664C86.0286 218.688 86.1806 217.808 86.4846 217.024C86.8046 216.224 87.2446 215.544 87.8046 214.984C88.3646 214.408 89.0206 213.968 89.7726 213.664C90.5406 213.344 91.3726 213.184 92.2686 213.184C93.0526 213.184 93.7966 213.304 94.5006 213.544C95.2206 213.784 95.8526 214.16 96.3966 214.672C96.9406 215.184 97.3726 215.84 97.6926 216.64C98.0286 217.44 98.1966 218.4 98.1966 219.52V220.36H89.0046C89.0526 221.56 89.3646 222.48 89.9406 223.12C90.5326 223.76 91.3726 224.08 92.4606 224.08C93.3406 224.08 94.0126 223.912 94.4766 223.576C94.9406 223.24 95.2286 222.768 95.3406 222.16H98.1486C97.9406 223.488 97.3326 224.504 96.3246 225.208C95.3166 225.896 94.0046 226.24 92.3886 226.24ZM95.3166 218.416C95.2366 217.328 94.9326 216.536 94.4046 216.04C93.8926 215.544 93.1806 215.296 92.2686 215.296C91.3886 215.296 90.6686 215.576 90.1086 216.136C89.5486 216.68 89.1966 217.44 89.0526 218.416H95.3166ZM100.791 213.448H103.695V215.464C103.871 215.16 104.095 214.872 104.367 214.6C104.639 214.328 104.951 214.088 105.303 213.88C105.671 213.672 106.063 213.504 106.479 213.376C106.895 213.248 107.335 213.184 107.799 213.184C108.583 213.184 109.311 213.328 109.983 213.616C110.671 213.904 111.263 214.32 111.759 214.864C112.255 215.408 112.647 216.08 112.935 216.88C113.223 217.664 113.367 218.56 113.367 219.568V219.76C113.367 220.768 113.223 221.672 112.935 222.472C112.663 223.272 112.279 223.952 111.783 224.512C111.303 225.072 110.719 225.504 110.031 225.808C109.359 226.096 108.615 226.24 107.799 226.24C106.791 226.24 105.935 226.024 105.23 225.592C104.543 225.16 104.031 224.64 103.695 224.032V230.296H100.791V213.448ZM107.079 223.936C108.151 223.936 108.967 223.592 109.527 222.904C110.103 222.2 110.391 221.168 110.391 219.808V219.616C110.391 218.928 110.303 218.328 110.127 217.816C109.967 217.288 109.735 216.848 109.431 216.496C109.127 216.144 108.775 215.888 108.375 215.728C107.975 215.552 107.535 215.464 107.055 215.464C106.047 215.464 105.215 215.808 104.559 216.496C103.919 217.168 103.599 218.208 103.599 219.616V219.808C103.599 221.216 103.911 222.256 104.535 222.928C105.175 223.6 106.023 223.936 107.079 223.936ZM115.978 213.448H121.042C121.698 213.448 122.306 213.504 122.866 213.616C123.426 213.728 123.906 213.912 124.306 214.168C124.722 214.408 125.042 214.728 125.266 215.128C125.506 215.528 125.626 216.016 125.626 216.592V216.64C125.626 217.312 125.442 217.896 125.074 218.392C124.722 218.888 124.162 219.224 123.394 219.4C124.258 219.576 124.938 219.888 125.434 220.336C125.93 220.784 126.178 221.416 126.178 222.232V222.304C126.178 223.504 125.77 224.424 124.954 225.064C124.154 225.688 123.002 226 121.498 226H115.978V213.448ZM118.882 215.392V218.584H120.634C121.338 218.584 121.85 218.456 122.17 218.2C122.49 217.928 122.65 217.504 122.65 216.928V216.88C122.65 216.304 122.466 215.912 122.098 215.704C121.746 215.496 121.226 215.392 120.538 215.392H118.882ZM118.882 220.528V224.056H120.946C121.698 224.056 122.258 223.92 122.626 223.648C123.01 223.376 123.202 222.936 123.202 222.328V222.28C123.202 221.112 122.482 220.528 121.042 220.528H118.882ZM128.845 226V213.448H131.749V222.328L137.173 213.448H140.053V226H137.173V217.12L131.749 226H128.845ZM148.896 226.24C148 226.24 147.16 226.096 146.376 225.808C145.608 225.52 144.936 225.104 144.36 224.56C143.8 224.016 143.36 223.352 143.04 222.568C142.72 221.784 142.56 220.888 142.56 219.88V219.688C142.56 218.696 142.72 217.8 143.04 217C143.376 216.2 143.832 215.52 144.408 214.96C144.984 214.384 145.656 213.944 146.424 213.64C147.192 213.336 148.016 213.184 148.896 213.184C149.584 213.184 150.256 213.272 150.912 213.448C151.568 213.608 152.152 213.872 152.664 214.24C153.192 214.608 153.632 215.096 153.984 215.704C154.336 216.296 154.552 217.024 154.632 217.888H151.824C151.696 217.04 151.376 216.432 150.864 216.064C150.352 215.696 149.712 215.512 148.944 215.512C148.448 215.512 147.992 215.608 147.576 215.8C147.16 215.976 146.8 216.248 146.496 216.616C146.192 216.968 145.952 217.4 145.776 217.912C145.616 218.424 145.536 219 145.536 219.64V219.832C145.536 221.208 145.848 222.248 146.472 222.952C147.096 223.656 147.944 224.008 149.016 224.008C149.4 224.008 149.76 223.952 150.096 223.84C150.448 223.728 150.76 223.56 151.032 223.336C151.304 223.112 151.528 222.832 151.704 222.496C151.88 222.16 151.992 221.768 152.04 221.32H154.704C154.656 222.04 154.48 222.704 154.176 223.312C153.888 223.904 153.496 224.424 153 224.872C152.504 225.304 151.904 225.64 151.2 225.88C150.512 226.12 149.744 226.24 148.896 226.24Z" fill="white"/>
<defs>
<filter id="filter0_d" x="0" y="0" width="336" height="306" filterUnits="userSpaceOnUse" color-interpolation-filters="sRGB">
<feFlood flood-opacity="0" result="BackgroundImageFix"/>
<feColorMatrix in="SourceAlpha" type="matrix" values="0 0 0 0 0 0 0 0 0 0 0 0 0 0 0 0 0 0 127 0"/>
<feOffset dy="4"/>
<feGaussianBlur stdDeviation="8"/>
<feColorMatrix type="matrix" values="0 0 0 0 0 0 0 0 0 0 0 0 0 0 0 0 0 0 0.12 0"/>
<feBlend mode="normal" in2="BackgroundImageFix" result="effect1_dropShadow"/>
<feBlend mode="normal" in="SourceGraphic" in2="effect1_dropShadow" result="shape"/>
</filter>
<filter id="filter1_d" x="33" y="21" width="128" height="128" filterUnits="userSpaceOnUse" color-interpolation-filters="sRGB">
<feFlood flood-opacity="0" result="BackgroundImageFix"/>
<feColorMatrix in="SourceAlpha" type="matrix" values="0 0 0 0 0 0 0 0 0 0 0 0 0 0 0 0 0 0 127 0"/>
<feOffset dy="4"/>
<feGaussianBlur stdDeviation="8"/>
<feColorMatrix type="matrix" values="0 0 0 0 0 0 0 0 0 0 0 0 0 0 0 0 0 0 0.12 0"/>
<feBlend mode="normal" in2="BackgroundImageFix" result="effect1_dropShadow"/>
<feBlend mode="normal" in="SourceGraphic" in2="effect1_dropShadow" result="shape"/>
</filter>
</defs>
</svg>
