<svg width="20" height="20" viewBox="0 0 20 20" fill="none" xmlns="http://www.w3.org/2000/svg">
<path fill-rule="evenodd" clip-rule="evenodd" d="M2.86935 1.45346C2.47883 1.06294 1.84566 1.06294 1.45514 1.45346C1.06461 1.84399 1.06461 2.47715 1.45514 2.86768L8.58699 9.99952L1.45403 17.1325C1.0635 17.523 1.0635 18.1562 1.45403 18.5467C1.84455 18.9372 2.47772 18.9372 2.86824 18.5467L10.0012 11.4137L17.1341 18.5466C17.5246 18.9371 18.1577 18.9371 18.5483 18.5466C18.9388 18.1561 18.9388 17.5229 18.5483 17.1324L11.4154 9.99952L18.5472 2.86778C18.9377 2.47726 18.9377 1.84409 18.5472 1.45357C18.1566 1.06304 17.5235 1.06304 17.1329 1.45357L10.0012 8.58531L2.86935 1.45346Z" fill="black"/>
</svg>
