<svg width="78" height="80" viewBox="0 0 78 80" fill="none" xmlns="http://www.w3.org/2000/svg">
<g filter="url(#filter0_d)">
<path d="M16 2C16 0.895432 16.8954 0 18 0H78V60C78 61.1046 77.1046 62 76 62H18C16.8954 62 16 61.1046 16 60V2Z" fill="white"/>
</g>
<g opacity="0.3">
<path fill-rule="evenodd" clip-rule="evenodd" d="M39.8694 22.4535C39.4788 22.0629 38.8457 22.0629 38.4551 22.4535C38.0646 22.844 38.0646 23.4772 38.4551 23.8677L45.587 30.9995L38.454 38.1325C38.0635 38.523 38.0635 39.1562 38.454 39.5467C38.8446 39.9372 39.4777 39.9372 39.8682 39.5467L47.0012 32.4137L54.1341 39.5466C54.5246 39.9371 55.1577 39.9371 55.5483 39.5466C55.9388 39.1561 55.9388 38.5229 55.5483 38.1324L48.4154 30.9995L55.5472 23.8678C55.9377 23.4773 55.9377 22.8441 55.5472 22.4536C55.1566 22.063 54.5235 22.063 54.1329 22.4536L47.0012 29.5853L39.8694 22.4535Z" fill="black"/>
</g>
<defs>
<filter id="filter0_d" x="0" y="-14" width="94" height="94" filterUnits="userSpaceOnUse" color-interpolation-filters="sRGB">
<feFlood flood-opacity="0" result="BackgroundImageFix"/>
<feColorMatrix in="SourceAlpha" type="matrix" values="0 0 0 0 0 0 0 0 0 0 0 0 0 0 0 0 0 0 127 0"/>
<feOffset dy="2"/>
<feGaussianBlur stdDeviation="8"/>
<feColorMatrix type="matrix" values="0 0 0 0 0 0 0 0 0 0 0 0 0 0 0 0 0 0 0.16 0"/>
<feBlend mode="normal" in2="BackgroundImageFix" result="effect1_dropShadow"/>
<feBlend mode="normal" in="SourceGraphic" in2="effect1_dropShadow" result="shape"/>
</filter>
</defs>
</svg>
