<svg width="59" height="96" viewBox="0 0 59 96" fill="none" xmlns="http://www.w3.org/2000/svg">
<path d="M58.2775 46.622C56.4402 43.4067 55.0622 40.1914 53.6842 36.7464C48.6316 24.8038 45.4163 12.1722 44.4976 1.60765C44.4976 0.688993 43.5789 0 42.6603 0H14.6412C13.7225 0 13.0335 0.688993 12.8038 1.60765C11.8852 14.4689 9.35885 25.9522 4.76555 36.7464C3.38756 39.9617 1.7799 43.4067 0.172249 46.622C-0.0574163 47.311 -0.0574163 48 0.172249 48.4593C2.00957 51.2153 3.38756 54.201 4.76555 57.4163C11.1962 71.6555 12.1148 84.7464 12.5742 94.3923C12.5742 95.311 13.4928 96 14.4115 96H42.4306C43.3493 96 44.0383 95.311 44.268 94.3923C45.4163 80.3828 48.4019 68.2105 53.4546 57.4163C54.8325 54.4306 56.4402 51.445 58.0479 48.4593C58.5072 47.7703 58.7369 47.0813 58.2775 46.622ZM50.4689 55.5789C45.4163 66.3732 42.4306 78.3158 41.2823 92.0957H16.2488C15.5598 82.6794 14.4115 69.3588 8.21053 55.5789C6.83254 52.823 5.45456 49.8373 3.8469 47.311C5.45456 44.3254 6.83254 41.11 8.21053 38.1244C12.5742 27.3301 15.3301 15.8469 16.2488 3.44498H41.0526C42.201 14.2392 45.4163 26.4115 50.2392 38.1244C51.6172 41.11 52.9952 44.3254 54.6029 47.311C53.2249 50.067 51.6172 52.823 50.4689 55.5789Z" fill="#047A47"/>
<path d="M46.5647 54.89C47.4834 52.3637 48.6317 49.8374 50.0097 47.3111C49.78 46.6221 49.3207 45.9331 48.8613 45.2441C47.713 43.1771 46.7943 41.1101 45.8757 38.8135C42.201 28.9379 39.9044 18.8326 38.7561 9.646L19.0049 88.1914H38.5264C39.2154 81.0718 41.0527 68.6699 46.5647 54.89Z" fill="#047A47"/>
</svg>
