<svg width="18" height="12" viewBox="0 0 18 12" fill="none" xmlns="http://www.w3.org/2000/svg">
<rect width="18" height="12" rx="2" fill="#004093"/>
<mask id="mask0" mask-type="alpha" maskUnits="userSpaceOnUse" x="0" y="0" width="18" height="12">
<rect width="18" height="12" rx="2" fill="#004093"/>
</mask>
<g mask="url(#mask0)">
<path d="M0 10H18V12H0V10Z" fill="#D6374B"/>
<path opacity="0.34" d="M6 0H7V1H6V0Z" fill="white"/>
<path opacity="0.34" d="M4 0H5V1H4V0Z" fill="white"/>
<path opacity="0.34" d="M6 2H7V3H6V2Z" fill="white"/>
<path opacity="0.34" d="M4 2H5V3H4V2Z" fill="white"/>
<path opacity="0.34" d="M0 0H1V1H0V0Z" fill="white"/>
<path opacity="0.34" d="M2 0H3V1H2V0Z" fill="white"/>
<path opacity="0.34" d="M1 1H2V2H1V1Z" fill="white"/>
<path opacity="0.34" d="M3 1H4V2H3V1Z" fill="white"/>
<path opacity="0.34" d="M5 1H6V2H5V1Z" fill="white"/>
<path opacity="0.34" d="M7 1H8V2H7V1Z" fill="white"/>
<path opacity="0.34" d="M1 3H2V4H1V3Z" fill="white"/>
<path opacity="0.34" d="M3 3H4V4H3V3Z" fill="white"/>
<path opacity="0.34" d="M5 3H6V4H5V3Z" fill="white"/>
<path opacity="0.34" d="M7 3H8V4H7V3Z" fill="white"/>
<path opacity="0.34" d="M2 2H3V3H2V2Z" fill="white"/>
<path opacity="0.34" d="M0 2H1V3H0V2Z" fill="white"/>
<path d="M8 2H18V4H8V2Z" fill="#D6374B"/>
<path d="M8 0H18V2H8V0Z" fill="white"/>
</g>
<path d="M0 8H18V10H0V8Z" fill="white"/>
<path d="M0 6H18V8H0V6Z" fill="#D6374B"/>
<path d="M0 4H18V6H0V4Z" fill="white"/>
</svg>
