<svg width="23" height="23" viewBox="0 0 23 23" fill="none" xmlns="http://www.w3.org/2000/svg">
<path d="M21.1127 3.67029L14.7847 19.9513C14.3847 20.9813 13.2337 21.5083 12.2137 21.1313C11.9651 21.0395 11.7383 20.8973 11.5472 20.7137C11.3562 20.5301 11.2052 20.309 11.1037 20.0643L9.09669 15.2343C8.70626 14.2936 7.95856 13.5463 7.01769 13.1563L2.18969 11.1503C1.18569 10.7333 0.72769 9.57429 1.16669 8.56029C1.27454 8.31243 1.43034 8.08835 1.62513 7.90094C1.81992 7.71353 2.04985 7.56649 2.30169 7.46829L18.5827 1.14029C18.9364 0.998147 19.324 0.963065 19.6975 1.0394C20.071 1.11574 20.4138 1.30014 20.6833 1.56968C20.9528 1.83922 21.1372 2.18201 21.2136 2.55548C21.2899 2.92894 21.2548 3.3166 21.1127 3.67029Z" stroke="white" stroke-width="2"/>
</svg>
