<?xml version="1.0" encoding="utf-8"?>
<!-- Generator: Adobe Illustrator 25.2.0, SVG Export Plug-In . SVG Version: 6.00 Build 0)  -->
<svg version="1.1" id="Слой_1" xmlns="http://www.w3.org/2000/svg" xmlns:xlink="http://www.w3.org/1999/xlink" x="0px" y="0px"
	 viewBox="0 0 22 17" style="enable-background:new 0 0 22 17;" xml:space="preserve">
<style type="text/css">
	.st0{fill-rule:evenodd;clip-rule:evenodd;fill:#FFFFFF;}
</style>
<path class="st0" d="M20,3.9l-8.4,5.9c-0.3,0.2-0.8,0.2-1.1,0L2,3.9V15h18V3.9z M0,2C0,2,0,2,0,2l0,13c0,1.1,0.9,2,2,2h18
	c1.1,0,2-0.9,2-2V2c0,0,0,0,0,0c0-1.1-0.9-2-2-2H2C0.9,0,0,0.9,0,2z M2.7,2L11,7.8L19.3,2H2.7z"/>
</svg>
