<svg width="22" height="17" viewBox="0 0 22 17" fill="none" xmlns="http://www.w3.org/2000/svg">
<path fill-rule="evenodd" clip-rule="evenodd" d="M20.0001 3.92066L11.5735 9.81923C11.2292 10.0603 10.7709 10.0603 10.4266 9.81923L2.00009 3.92066L2.00009 15H20.0001V3.92066ZM0.000185211 1.97986C-2.25053e-05 1.99066 -5.53489e-05 2.00146 8.58955e-05 2.01225V15C8.58955e-05 16.1046 0.895516 17 2.00009 17H20.0001C21.1047 17 22.0001 16.1046 22.0001 15V2.01222C22.0002 2.00145 22.0002 1.99068 22 1.97991C21.9892 0.884591 21.0979 0 20.0001 0H2.00009C0.902238 0 0.0109913 0.884566 0.000185211 1.97986ZM2.74388 2L11.0001 7.77934L19.2563 2H2.74388Z" fill="white"/>
</svg>
