<svg width="22" height="22" viewBox="0 0 22 22" fill="none" xmlns="http://www.w3.org/2000/svg">
<path d="M8.0952 6.78678L8.62244 6.24984C9.17744 5.68464 9.34656 4.84514 9.05369 4.10913L8.31812 2.26057C8.01528 1.49948 7.27896 1 6.45984 1H2.81818C2.336 1 1.87355 1.19153 1.53256 1.53248C1.19158 1.87344 1 2.33589 1 2.81811V2.88356V2.92236L1.00301 2.96104C1.19744 5.46314 1.91913 9.73761 4.50366 13.5151C7.12315 17.3437 11.5965 20.5696 19.0734 20.9967C19.3115 21.0111 19.5501 20.9785 19.7756 20.9008C20.0018 20.8228 20.2105 20.701 20.3895 20.5422C20.5686 20.3834 20.7145 20.1909 20.819 19.9756C20.9235 19.7603 20.9844 19.5264 20.9983 19.2875L21 19.2585V19.2294V15.5374C21 14.7199 20.5025 13.9847 19.7436 13.6808L17.8955 12.9407C17.1567 12.6448 16.3128 12.8151 15.7465 13.3744L15.2102 13.9041C12.0819 13.4838 10.3261 11.7337 9.32267 10.0481C8.81052 9.18779 8.49737 8.34565 8.31297 7.71353C8.22114 7.39871 8.16239 7.13995 8.12723 6.96247C8.11254 6.88833 8.10212 6.82914 8.0952 6.78678Z" stroke="white" stroke-width="2"/>
</svg>
