<svg width="220" height="57" viewBox="0 0 220 57" fill="none" xmlns="http://www.w3.org/2000/svg">
<g opacity="0.3">
<path d="M124.616 34.5441C124.616 46.4537 115.129 56.1313 103.566 56.1313C92.0028 56.1313 82.5151 46.4537 82.5151 34.5441V16.2151C82.5151 16.2151 92.5828 18.7321 92.5828 29.3924V34.488C92.5828 41.0229 97.4805 46.2215 103.566 46.2215C109.651 46.2215 114.549 41.0229 114.549 34.488V24.092C114.994 15.1809 122.557 12.3597 124.493 11.3197H124.616V34.5441ZM70.411 13.0758C73.2322 13.0758 75.9024 13.522 78.2821 14.5631V25.8492C76.2022 24.0668 73.3798 23.0268 70.4087 23.0268C63.724 23.0257 58.3755 28.2254 58.3755 34.7614V56.0523H48.3078V17.0869C48.3078 17.0869 52.4664 17.2345 55.1401 19.1657C59.0013 15.3045 64.4962 13.077 70.4373 13.077L70.411 13.0758ZM22.0094 46.345C15.3258 46.345 9.83088 40.9977 9.83088 34.4628C9.83088 27.928 15.3224 22.5818 22.0094 22.5818C28.6964 22.5818 34.1878 27.928 34.1878 34.4628C34.1878 40.9977 28.6964 46.345 22.0094 46.345ZM21.9796 13.077C9.80113 13.077 0 22.7305 0 34.4628C0 46.345 9.80228 55.8498 21.9796 55.8498C27.0295 55.8498 31.6332 54.2161 35.3468 51.388C37.5743 55.1016 43.9604 55.8498 43.9604 55.8498V34.4628C43.9604 22.7305 34.1581 13.077 21.9796 13.077ZM197.707 46.345C191.023 46.345 185.528 40.9977 185.528 34.4628C185.528 27.928 191.02 22.5818 197.707 22.5818C204.394 22.5818 209.885 27.928 209.885 34.4628C209.885 40.9977 204.394 46.345 197.707 46.345ZM197.707 13.077C185.528 13.077 175.727 22.7305 175.727 34.4628C175.727 46.345 185.529 55.8498 197.707 55.8498C202.757 55.8498 207.36 54.2161 211.074 51.388C213.301 55.1016 219.688 55.8498 219.688 55.8498V34.4628C219.688 22.7305 209.885 13.077 197.707 13.077ZM151.072 46.345C144.389 46.345 138.893 40.9977 138.893 34.4628C138.893 27.928 144.385 22.5818 151.072 22.5818C157.759 22.5818 163.251 27.928 163.251 34.4628C163.4 40.9977 157.904 46.345 151.072 46.345ZM151.141 13.0747C146.669 13.0747 142.496 14.4121 138.917 16.6396V13.2234C138.47 4.31236 131.165 1.49112 129.227 0.451172H129.078V55.9974C129.078 55.9974 135.637 55.2549 138.171 51.69C141.898 54.215 146.371 55.8487 151.141 55.8487C163.366 55.8487 173.203 46.1951 173.203 34.4617C173.353 22.7294 163.364 13.0747 151.141 13.0747Z" fill="black"/>
</g>
</svg>
