<svg width="202" height="107" viewBox="0 0 202 107" fill="none" xmlns="http://www.w3.org/2000/svg">
<g opacity="0.3">
<path d="M66.2395 105.851H57.4214V70.9058H66.2395V105.851Z" fill="black"/>
<path d="M137.343 80.9179C136.979 80.7336 134.142 79.0522 129.924 79.0522C124.223 79.0522 120.268 83.0184 120.268 88.3729C120.268 93.5655 124.053 97.7022 129.924 97.7022C134.069 97.7022 136.954 96.0542 137.343 95.8475V105.227C136.236 105.534 133.223 106.47 129.307 106.47C119.388 106.47 110.682 99.6323 110.682 88.3702C110.682 77.9377 118.558 70.2843 129.307 70.2843C133.44 70.2843 136.507 71.29 137.343 71.5385V80.9179ZM45.2991 80.9179C44.9443 80.7336 42.1093 79.0522 37.8916 79.0522C32.1795 79.0522 28.2272 83.0184 28.2272 88.3729C28.2272 93.5655 32.0148 97.7022 37.8916 97.7022C42.0367 97.7022 44.9192 96.0542 45.2991 95.8475V105.227C44.2042 105.534 41.1931 106.47 37.2548 106.47C27.3446 106.47 18.6494 99.6323 18.6494 88.3702C18.6494 77.9377 26.5262 70.2843 37.2575 70.2843C41.4082 70.2843 44.4695 71.29 45.2991 71.5385V80.9179ZM165.082 79.1835C159.85 79.1835 155.965 83.3005 155.965 88.3729C155.965 93.4565 159.85 97.5709 165.082 97.5709C170.308 97.5709 174.204 93.4565 174.204 88.3729C174.204 83.3005 170.308 79.1835 165.082 79.1835ZM183.547 88.3729C183.547 98.3697 175.83 106.47 165.084 106.47C154.333 106.47 146.627 98.3698 146.627 88.3702C146.627 78.393 154.336 70.2843 165.082 70.2843C175.83 70.2843 183.547 78.3929 183.547 88.3729ZM99.6794 78.8483C99.5481 78.8064 95.836 77.7813 92.7858 77.7813C89.2525 77.7813 87.3308 78.9656 87.3308 80.6443C87.3308 82.7727 89.9228 83.5156 91.3725 83.9737L93.8053 84.7475C99.5313 86.5686 102.137 90.4874 102.137 94.7442C102.137 103.523 94.417 106.473 87.6687 106.473C82.979 106.473 78.5853 105.607 78.1524 105.517V97.4731C78.9289 97.6686 82.6271 98.7747 86.4789 98.7747C90.8669 98.7747 92.8836 97.4899 92.8836 95.5124C92.8836 93.7415 91.1378 92.7191 88.9508 92.032C88.4201 91.8532 87.6157 91.6018 87.0682 91.423C82.1578 89.87 78.063 86.982 78.063 81.2001C78.063 74.6641 82.9566 70.276 91.0848 70.276C95.3779 70.276 99.4168 71.3178 99.6794 71.3877V78.8454V78.8483Z" fill="black"/>
<path d="M9.29762 33.3497C9.29762 30.942 7.33122 28.9895 4.92071 28.9895C2.5102 28.9895 0.541016 30.9419 0.541016 33.3468V42.5225C0.569864 43.6646 1.04381 44.7502 1.86176 45.5477C2.6797 46.3453 3.77691 46.7915 4.91933 46.7915C6.06174 46.7915 7.15893 46.3453 7.97688 45.5477C8.79482 44.7502 9.26877 43.6646 9.29762 42.5225V33.3497ZM33.344 21.3112C33.344 20.15 32.8828 19.0363 32.0617 18.2152C31.2406 17.3941 30.127 16.9329 28.9658 16.9329C27.8046 16.9329 26.6909 17.3941 25.8698 18.2152C25.0487 19.0363 24.5874 20.15 24.5874 21.3112V42.5225C24.5874 43.6837 25.0487 44.7974 25.8698 45.6185C26.6909 46.4396 27.8046 46.9008 28.9658 46.9008C30.127 46.9008 31.2406 46.4396 32.0617 45.6185C32.8828 44.7974 33.344 43.6837 33.344 42.5225V21.3083V21.3112ZM57.3933 4.83701C57.3933 2.42929 55.4269 0.474037 53.0164 0.474037C50.6031 0.474037 48.6367 2.42929 48.6367 4.83701V51.2399C48.6655 52.382 49.1395 53.4676 49.9574 54.2651C50.7754 55.0627 51.8725 55.5091 53.015 55.5091C54.1574 55.5091 55.2546 55.0627 56.0725 54.2651C56.8905 53.4676 57.3644 52.382 57.3933 51.2399V4.83701ZM81.4397 21.3112C81.4397 20.15 80.9784 19.0363 80.1573 18.2152C79.3362 17.3941 78.2226 16.9329 77.0614 16.9329C75.9002 16.9329 74.7866 17.3941 73.9655 18.2152C73.1444 19.0363 72.6831 20.15 72.6831 21.3112V42.5225C72.6831 43.6837 73.1444 44.7974 73.9655 45.6185C74.7866 46.4396 75.9002 46.9008 77.0614 46.9008C78.2226 46.9008 79.3362 46.4396 80.1573 45.6185C80.9784 44.7974 81.4397 43.6837 81.4397 42.5225V21.3083V21.3112ZM105.461 33.3497C105.462 32.1946 105.004 31.0864 104.188 30.2688C103.372 29.4512 102.264 28.991 101.109 28.9895C99.9516 28.9888 98.8408 29.4471 98.0204 30.2639C97.1999 31.0806 96.7368 32.1892 96.7323 33.3468V42.5225C96.7323 43.68 97.1921 44.7901 98.0106 45.6086C98.8291 46.427 99.9392 46.8868 101.097 46.8868C102.254 46.8868 103.364 46.427 104.183 45.6086C105.001 44.7901 105.461 43.68 105.461 42.5225V33.3497ZM129.519 21.3112C129.49 20.1728 129.017 19.0907 128.202 18.2957C127.387 17.5007 126.293 17.0558 125.154 17.0558C124.016 17.0558 122.922 17.5007 122.106 18.2957C121.291 19.0907 120.819 20.1728 120.79 21.3112V42.5225C120.79 43.68 121.25 44.7901 122.068 45.6086C122.887 46.427 123.997 46.8868 125.154 46.8868C126.312 46.8868 127.422 46.427 128.24 45.6086C129.059 44.7901 129.519 43.68 129.519 42.5225V21.3083V21.3112ZM153.582 4.83701C153.582 3.67952 153.122 2.56942 152.303 1.75095C151.485 0.932476 150.375 0.472675 149.217 0.472675C148.06 0.472675 146.95 0.932476 146.131 1.75095C145.313 2.56942 144.853 3.67952 144.853 4.83701V51.2399C144.827 51.8291 144.921 52.4175 145.129 52.9695C145.336 53.5215 145.654 54.0257 146.062 54.4518C146.469 54.8779 146.959 55.217 147.502 55.4486C148.044 55.6803 148.628 55.7998 149.217 55.7998C149.807 55.7998 150.391 55.6803 150.933 55.4486C151.476 55.217 151.966 54.8779 152.373 54.4518C152.781 54.0257 153.098 53.5215 153.306 52.9695C153.514 52.4175 153.608 51.8291 153.582 51.2399V4.83701ZM177.639 21.3112C177.639 18.9007 175.687 16.9426 173.221 16.9426C172.063 16.9433 170.953 17.4036 170.135 18.2222C169.317 19.0409 168.858 20.1509 168.858 21.3083V42.5225C168.858 44.9442 170.813 46.8966 173.221 46.8966C175.687 46.8966 177.639 44.9442 177.639 42.5225V21.3083V21.3112ZM201.652 33.3497C201.652 32.1911 201.192 31.0799 200.373 30.2606C199.554 29.4414 198.442 28.9811 197.284 28.9811C196.125 28.9811 195.014 29.4414 194.195 30.2606C193.375 31.0799 192.915 32.1911 192.915 33.3497V42.5225C192.915 44.9442 194.873 46.8993 197.284 46.8993C199.691 46.8993 201.649 44.9442 201.649 42.5225V33.3497H201.652Z" fill="black"/>
<path d="M196.606 101.247V101.795H195.047V105.848H194.405V101.798H192.84V101.247H196.606ZM196.932 101.247H197.935L199.312 105.021H199.334L200.667 101.25H201.65V105.848H200.994V102.077H200.971L199.575 105.848H198.969L197.605 102.077H197.575V105.848H196.932V101.247Z" fill="black"/>
</g>
</svg>
