<svg width="242" height="101" viewBox="0 0 242 101" fill="none" xmlns="http://www.w3.org/2000/svg">
<g opacity="0.3">
<path d="M77.815 18.5866H5.43152V5.1737H77.815V18.5866ZM82.979 0H0.257812V23.7604H82.979V0Z" fill="black"/>
<path d="M5.43152 63.0226H0.257812V39.2622H5.43152V48.6522H14.6668V39.2622H19.8405V63.0226H14.6668V53.178H5.43152V63.0226ZM27.6736 52.6075H33.8337C33.7176 50.8571 33.002 49.6386 30.9809 49.6386C29.453 49.6386 28.1281 50.2865 27.6736 52.6075ZM31.5805 63.3997C26.3294 63.3997 22.761 60.0924 22.761 54.6576C22.761 49.3679 26.2617 45.7221 30.8939 45.7221C35.9515 45.7221 38.4562 49.1067 38.4562 54.1644V56.0695H27.6736C28.2828 58.6902 30.333 59.3768 32.3928 59.3768C34.1818 59.3768 35.468 58.9996 37.0636 58.0036H37.257V61.9201C35.8838 62.9065 33.9401 63.3997 31.5805 63.3997ZM51.9658 53.062L49.3064 63.0226H44.7807L39.607 46.2926V46.0992H44.5486L47.3627 56.0985L50.0221 46.0992H54.0546L56.7527 56.0985L59.6055 46.0992H64.3537V46.2926L59.18 63.0226H54.6542L51.9658 53.062ZM72.7573 63.3997C68.6474 63.3997 66.9744 61.7654 66.9744 57.9262V39.2622H71.9934V57.5781C71.9934 58.7579 72.4479 59.1737 73.4343 59.1737C73.7727 59.1737 74.2756 59.0577 74.5754 58.9416H74.6528V63.0806C74.2369 63.245 73.5213 63.3997 72.7573 63.3997ZM80.9676 52.6075H87.1277C87.0116 50.8571 86.296 49.6386 84.2749 49.6386C82.7566 49.6386 81.4221 50.2865 80.9676 52.6075ZM84.8841 63.3997C79.633 63.3997 76.0646 60.0924 76.0646 54.6576C76.0646 49.3679 79.5654 45.7221 84.1975 45.7221C89.2552 45.7221 91.7598 49.1067 91.7598 54.1644V56.0695H80.9676C81.5768 58.6902 83.627 59.3768 85.6771 59.3768C87.4661 59.3768 88.7523 58.9996 90.3576 58.0036H90.551V61.9201C89.1875 62.9065 87.2437 63.3997 84.8841 63.3997ZM112.368 46.1089H116.091V50.1415H112.368V57.0172C112.368 58.4968 112.938 59.1834 114.456 59.1834C114.872 59.1834 115.404 59.1447 115.975 58.9513H116.091V62.9065C115.443 63.1386 114.456 63.3997 113.016 63.3997C108.944 63.3997 107.349 61.5333 107.349 57.2396V50.1318H100.927V57.0075C100.927 58.4871 101.498 59.1737 103.016 59.1737C103.432 59.1737 103.964 59.135 104.535 58.9416H104.651V62.8968C104.003 63.1289 103.016 63.39 101.575 63.39C97.5041 63.39 95.9084 61.5236 95.9084 57.2299V50.1221H93.3264V46.0896H95.9084V41.4574H100.927V46.0896H107.349V41.4574H112.368V46.1089ZM133.004 50.9345C135.625 50.9345 136.882 49.4549 136.882 47.3274C136.882 45.1225 135.635 43.6429 133.004 43.6429H129.736V50.9441L133.004 50.9345ZM142.133 47.3274C142.133 52.5011 138.671 55.3055 133.43 55.3055H129.745V63.0226H124.581V39.2622H133.44C138.671 39.2622 142.133 42.0763 142.133 47.3274ZM153.158 57.7038V56.2629C152.394 55.8471 151.407 55.6923 150.382 55.6923C148.748 55.6923 147.762 56.3016 147.762 57.6651C147.762 59.077 148.748 59.6766 150.227 59.6766C151.639 59.6766 152.703 58.9513 153.158 57.7038ZM153.312 61.3496C152.21 62.6841 150.576 63.3223 148.825 63.3223C145.518 63.3223 142.82 61.3109 142.82 57.7328C142.82 54.4255 145.518 52.2206 149.396 52.2206C150.614 52.2206 151.871 52.4141 153.158 52.7912V52.4914C153.158 50.6637 152.133 49.8707 149.435 49.8707C147.723 49.8707 146.089 50.3639 144.677 51.1666H144.493V47.134C145.789 46.3797 148.071 45.7318 150.305 45.7318C155.401 45.7318 158.177 48.1687 158.177 52.4237V63.0322H153.312V61.3496ZM160.72 54.5802C160.72 49.1454 164.559 45.7221 169.578 45.7221C171.367 45.7221 173.04 46.0992 174.288 47.0179V51.3116H174.094C172.992 50.48 171.696 49.9771 170.216 49.9771C167.712 49.9771 165.807 51.6888 165.807 54.5802C165.807 57.4717 167.712 59.1447 170.216 59.1447C171.696 59.1447 172.992 58.6515 174.094 57.8102H174.288V62.1039C173.03 63.0129 171.357 63.3997 169.578 63.3997C164.559 63.3997 160.72 60.0247 160.72 54.5802ZM182.469 55.3442V63.0226H177.45V39.2622H182.469V52.7912L187.527 46.0992H193.232V46.2926L187.149 53.971L193.232 62.8291V63.0226H187.488L182.469 55.3442ZM204.479 57.7038V56.2629C203.725 55.8471 202.729 55.6923 201.703 55.6923C200.069 55.6923 199.083 56.3016 199.083 57.6651C199.083 59.077 200.069 59.6766 201.549 59.6766C202.961 59.6766 204.024 58.9513 204.479 57.7038ZM204.634 61.3496C203.531 62.6841 201.897 63.3223 200.146 63.3223C196.839 63.3223 194.141 61.3109 194.141 57.7328C194.141 54.4255 196.839 52.2206 200.717 52.2206C201.936 52.2206 203.183 52.4141 204.479 52.7912V52.4914C204.479 50.6637 203.454 49.8707 200.756 49.8707C199.044 49.8707 197.41 50.3639 195.998 51.1666H195.804V47.134C197.1 46.3797 199.383 45.7318 201.616 45.7318C206.713 45.7318 209.488 48.1687 209.488 52.4237V63.0322H204.624L204.634 61.3496ZM217.94 48.8456C218.849 46.9792 220.184 45.9155 222.05 45.9155C222.737 45.9155 223.414 46.0702 223.684 46.2249V51.0118H223.501C222.93 50.7797 222.243 50.6347 221.296 50.6347C219.739 50.6347 218.52 51.5437 218.105 53.2941V63.0226H213.086V46.1089H217.95L217.94 48.8456ZM236.981 57.2783V51.8435C236.15 50.625 235.047 50.0931 233.79 50.0931C231.585 50.0931 230.106 51.6888 230.106 54.5802C230.106 57.4717 231.585 59.0287 233.79 59.0287C235.047 59.0287 236.15 58.4968 236.981 57.2783ZM237.136 61.2722C236.072 62.6454 234.399 63.3997 232.117 63.3997C227.785 63.3997 225.009 59.4445 225.009 54.5802C225.009 49.716 227.785 45.7221 232.117 45.7221C234.322 45.7221 235.918 46.4087 236.981 47.6562V39.2622H242V63.0129H237.136V61.2722ZM0.257812 70.7783H14.9376V73.6697H3.56511V80.9323H13.8642V83.7464H3.56511V91.6568H14.9279V94.5483H0.257813L0.257812 70.7783ZM27.0644 77.4702C30.8262 77.4702 32.915 79.9459 32.915 84.0075V94.5386H29.7624V84.0848C29.7624 81.9187 28.66 80.3617 26.2617 80.3617C24.2889 80.3617 22.6159 81.6189 22.0454 83.3982V94.5386H18.8928V77.8087H22.0454V80.2457C23.0318 78.6887 24.7048 77.4702 27.0644 77.4702ZM41.396 77.8087H45.6897V80.5068H41.396V89.51C41.396 91.4054 42.3824 92.0533 44.1714 92.0533C44.6646 92.0533 45.1965 91.976 45.5736 91.8212H45.6897V94.5193C45.2352 94.7127 44.5873 94.8578 43.7169 94.8578C39.8004 94.8578 38.2434 93.0687 38.2434 89.8001V80.4874H35.352V77.7894H38.2434V73.341H41.396V77.8087ZM50.9698 84.5394H59.296C59.18 82.0734 57.9615 80.1683 55.3795 80.1683C52.9909 80.1683 51.434 81.9573 50.9698 84.5394ZM55.9501 94.8771C51.0471 94.8771 47.7011 91.6085 47.7011 86.3671C47.7011 81.116 50.815 77.4702 55.3408 77.4702C59.944 77.4702 62.3326 80.7775 62.3326 85.6805V87.1214H50.8634C51.2019 90.506 53.3777 92.1403 56.3756 92.1403C58.242 92.1403 59.5668 91.7245 61.0561 90.6221H61.1721V93.3975C59.7989 94.4613 58.0099 94.8771 55.9501 94.8771ZM69.2179 80.4004C69.9432 78.6114 71.5389 77.5476 73.3569 77.5476C74.0822 77.5476 74.7301 77.6637 74.9912 77.8087V80.9226H74.8752C74.4207 80.7002 73.6567 80.5841 72.8927 80.5841C71.1811 80.5841 69.7402 81.7253 69.2083 83.6207V94.529H66.0557V77.8087H69.2083L69.2179 80.4004ZM85.1839 92.0243C88.2978 92.0243 90.1255 89.5583 90.1255 86.1737C90.1255 82.8277 88.2978 80.323 85.1839 80.323C83.4722 80.323 81.8766 81.3481 81.0449 82.9824V89.4133C81.8766 91.0379 83.4819 92.0243 85.1839 92.0243ZM85.7254 77.4702C90.7057 77.4702 93.3651 81.5415 93.3651 86.1737C93.3651 90.8155 90.7057 94.8771 85.7254 94.8771C83.6753 94.8771 81.9249 93.8133 81.0449 92.6722V100.96H77.8924V77.8087H81.0449V79.7041C81.9153 78.534 83.6656 77.4702 85.7254 77.4702ZM100.241 80.4004C100.966 78.6114 102.562 77.5476 104.38 77.5476C105.105 77.5476 105.753 77.6637 106.014 77.8087V80.9226H105.898C105.444 80.7002 104.68 80.5841 103.925 80.5841C102.214 80.5841 100.773 81.7253 100.241 83.6207V94.529H97.0882V77.8087H100.241V80.4004ZM110.588 71.049C111.691 71.049 112.6 71.9194 112.6 73.0218C112.6 74.1243 111.691 74.9946 110.588 74.9946C109.524 74.9946 108.577 74.1243 108.577 73.0218C108.567 71.9194 109.524 71.049 110.588 71.049ZM109.022 94.5386H112.174V77.8087H109.022V94.5386ZM123.431 84.7714C125.829 85.5257 128.488 86.5218 128.488 89.7131C128.488 93.1364 125.674 94.8868 122.067 94.8868C119.862 94.8868 117.657 94.3549 116.4 93.3685V90.3707H116.555C117.967 91.6665 120.056 92.2371 122.028 92.2371C123.817 92.2371 125.413 91.5504 125.413 90.1095C125.413 88.63 124.088 88.2818 121.458 87.4115C119.098 86.6475 116.478 85.7772 116.478 82.6246C116.478 79.3947 119.137 77.4896 122.522 77.4896C124.494 77.4896 126.245 77.9054 127.657 78.8628V81.909H127.541C126.177 80.8066 124.572 80.1586 122.599 80.1586C120.626 80.1586 119.524 81.029 119.524 82.2088C119.514 83.5143 120.733 83.8914 123.431 84.7714ZM134.494 84.5394H142.82C142.704 82.0734 141.495 80.1683 138.903 80.1683C136.515 80.1683 134.958 81.9573 134.494 84.5394ZM139.474 94.8771C134.571 94.8771 131.225 91.6085 131.225 86.3671C131.225 81.116 134.339 77.4702 138.865 77.4702C143.468 77.4702 145.856 80.7775 145.856 85.6805V87.1214H134.387C134.726 90.506 136.892 92.1403 139.899 92.1403C141.766 92.1403 143.091 91.7245 144.58 90.6221H144.696V93.3975C143.323 94.4613 141.534 94.8771 139.474 94.8771Z" fill="black"/>
</g>
</svg>
