<svg width="470" height="74" viewBox="0 0 470 74" fill="none" xmlns="http://www.w3.org/2000/svg">
<g opacity="0.3">
<path d="M319.704 1.81689H0V73.8169H319.704V1.81689Z" fill="black"/>
<path d="M272.414 49.487C267.092 49.487 262.606 45.9136 261.238 41.0477H290.813L294.843 34.7373H261.162C262.53 29.8714 267.016 26.298 272.414 26.298H292.714L296.743 19.9115H271.882C261.998 19.9115 253.939 27.9706 253.939 37.8545C253.939 47.8144 261.998 55.8735 271.882 55.8735H293.246L297.276 49.563H272.414V49.487ZM187.793 55.7975C177.833 55.7975 169.85 47.7383 169.85 37.7784C169.85 27.8946 177.909 19.8355 187.793 19.8355H212.655L208.549 26.222H188.249C181.787 26.222 176.617 31.392 176.617 37.7784C176.617 44.241 181.863 49.487 188.249 49.487H213.187L209.081 55.7975H187.793ZM56.414 49.487C62.8765 49.487 68.0465 44.241 68.0465 37.7784C68.0465 31.392 62.8005 26.222 56.414 26.222H36.4942C30.1077 26.222 24.8617 31.392 24.8617 37.7784C24.8617 44.241 30.1077 49.487 36.4942 49.487H56.414ZM36.0381 55.7975C26.0782 55.7975 18.019 47.7383 18.019 37.7784C18.019 27.8946 26.0782 19.8355 36.0381 19.8355H56.9462C66.9061 19.8355 74.8892 27.8946 74.8892 37.7784C74.8892 47.7383 66.83 55.7975 56.9462 55.7975H36.0381ZM108.874 44.1649C115.641 44.1649 121.039 38.6908 121.039 32.0002C121.039 25.3096 115.641 19.8355 108.874 19.8355H78.6146V55.7975H85.5333V26.222H108.418C111.611 26.222 114.196 28.807 114.196 32.0002C114.196 35.1934 111.535 37.7784 108.418 37.7784H88.9546L109.559 55.7975H119.595L105.681 44.1649H108.874ZM223.299 49.487V19.8355H216.38V52.3761C216.38 53.2885 216.684 54.1248 217.369 54.733C218.053 55.4173 218.965 55.7975 219.878 55.7975H251.43L255.535 49.487H223.299ZM138.602 43.1005H157.077L147.345 27.4384L129.402 55.7975H121.267L143.012 21.6602C144 20.2916 145.521 19.4553 147.269 19.4553C148.942 19.4553 150.539 20.2916 151.451 21.6602L173.347 55.7975H165.136L161.335 49.411H142.632L138.602 43.1005Z" fill="white"/>
<path d="M303.586 23.3328C303.89 23.3328 304.119 23.3328 304.347 23.0287C304.423 22.9526 304.423 22.8006 304.423 22.6485C304.423 22.4204 304.271 22.1923 304.119 22.1163C303.89 22.0403 303.738 22.0403 303.282 22.0403H302.978V23.3328H303.586ZM303.282 21.28C303.966 21.28 304.195 21.28 304.423 21.356C305.259 21.6601 305.335 22.3444 305.335 22.6485C305.335 22.7245 305.335 22.8766 305.259 23.0287C305.183 23.1807 305.107 23.5609 304.727 23.7889C304.651 23.7889 304.651 23.865 304.499 23.865L305.563 25.7657H304.499L303.586 24.017H302.902V25.7657H302.066V21.28H303.282ZM303.662 27.7425C305.867 27.7425 307.692 25.9178 307.692 23.7129C307.692 21.432 305.867 19.6833 303.662 19.6833C301.381 19.6833 299.633 21.5081 299.633 23.7129C299.633 25.9178 301.381 27.7425 303.662 27.7425ZM300.469 23.6369C300.469 21.8882 301.914 20.4436 303.662 20.4436C305.411 20.4436 306.856 21.8882 306.856 23.6369C306.856 25.4616 305.411 26.8301 303.662 26.8301C301.914 26.8301 300.469 25.4616 300.469 23.6369Z" fill="white"/>
<path d="M353.191 9.03098C353.116 8.35366 353.116 7.3753 352.438 6.32169C351.309 4.51549 349.202 4.28972 347.998 4.28972C341.526 4.28972 340.171 10.3856 340.171 14.4496C340.171 16.2558 340.397 19.4919 342.354 21.5991C343.708 23.1043 345.439 23.8568 348.6 23.8568C351.385 23.8568 352.363 23.5558 352.965 23.33V17.6857H347.772V13.2454H358.685V26.5661C357.029 27.0929 354.32 28.0713 348.901 28.0713C342.805 28.0713 339.644 26.5661 337.537 24.5342C334.527 21.5991 334 17.3846 334 14.5248C334 5.0423 339.945 0 347.998 0C351.46 0 354.997 0.978356 357.104 3.38662C358.91 5.41859 358.986 7.52582 358.986 8.95572H353.191" fill="black"/>
<path d="M374.188 24.3837C376.596 24.3837 378.176 22.9538 378.176 17.9867C378.176 15.5032 377.725 12.0413 374.113 12.0413C370.124 12.0413 370.049 16.6321 370.049 18.363C370.124 22.5775 371.479 24.3837 374.188 24.3837ZM374.113 8.42896C380.886 8.42896 383.821 13.0197 383.821 18.2125C383.821 23.4806 380.811 28.2219 374.037 28.2219C368.694 28.2219 364.479 24.9105 364.479 18.363C364.479 13.8475 366.813 8.42896 374.113 8.42896Z" fill="black"/>
<path d="M394.884 0.828125H389.39V27.5448H394.884V0.828125Z" fill="black"/>
<path d="M409.334 24.3839C410.914 24.3839 412.193 23.4056 412.795 22.2767C413.623 20.6963 413.699 18.8148 413.699 17.9117C413.699 14.2241 412.118 12.2674 409.635 12.2674C405.947 12.2674 405.571 16.6323 405.571 18.5138C405.571 21.5994 406.624 24.3839 409.334 24.3839ZM413.473 0.828125H418.967V24.4592C418.967 25.5881 419.042 26.7922 419.117 27.4695H413.548L413.397 24.7602C413.021 25.4376 412.645 26.1149 411.516 26.8675C410.161 27.7706 408.731 27.8458 407.904 27.8458C402.937 27.8458 399.926 24.3839 399.926 18.5891C399.926 12.4179 403.313 8.57972 408.205 8.57972C411.591 8.57972 412.946 10.4612 413.473 11.1385V0.828125Z" fill="black"/>
<path d="M340.774 57.6478H343.107C344.988 57.6478 348.375 57.6478 348.375 53.5838C348.375 49.9714 345.289 49.9714 343.709 49.9714H340.849V57.6478H340.774ZM335.129 45.6064H343.333C347.171 45.6064 350.407 45.8322 352.589 48.5415C354.019 50.2725 354.245 52.1539 354.245 53.5086C354.245 56.5941 352.966 59.2282 350.858 60.5828C348.902 61.8622 346.192 61.8622 344.762 61.8622H340.849V72.3231H335.054V45.6064" fill="black"/>
<path d="M362.223 66.5288C362.223 67.8082 363.051 69.1629 364.857 69.1629C365.835 69.1629 366.663 68.7113 367.19 68.1093C368.168 66.9051 368.243 65.4752 368.243 63.5185C364.706 63.2175 362.223 64.2711 362.223 66.5288ZM368.921 72.3237C368.77 71.1948 368.77 70.367 368.77 69.7649C366.738 72.7753 364.179 72.7753 363.201 72.7753C360.492 72.7753 359.288 72.0227 358.535 71.2701C357.406 70.1412 356.879 68.6361 356.879 67.1309C356.879 65.6257 357.406 62.9164 360.868 61.336C363.126 60.2824 366.437 60.2824 368.243 60.2824C368.243 59.0783 368.243 58.4762 368.018 57.7989C367.566 56.4442 366.061 56.2185 365.609 56.2185C364.857 56.2185 364.029 56.5195 363.502 57.2721C363.126 57.8741 363.126 58.4762 363.126 58.9278H357.782C357.782 57.9494 357.933 55.9174 359.89 54.5628C361.621 53.3586 363.803 53.0576 365.534 53.0576C367.115 53.0576 370.351 53.2834 372.157 55.4659C373.436 56.971 373.436 59.2288 373.436 60.0566L373.511 67.5824C373.511 69.1629 373.587 70.7433 373.963 72.3237H368.921Z" fill="black"/>
<path d="M379.005 58.1739C379.005 57.2708 378.854 54.5615 378.779 53.5079H383.896L383.972 57.1203C384.649 55.5399 385.853 53.2821 390.369 53.5079V58.3997C384.799 57.8729 384.498 60.7327 384.498 63.0657V72.3224H379.005V58.1739Z" fill="black"/>
<path d="M407.377 72.0218C405.571 72.4733 403.99 72.6238 403.162 72.6238C397.669 72.6238 397.669 69.162 397.669 67.5815V57.3464H393.981V53.734H397.593V50.0464L403.012 48.0144V53.6588H407.452V57.2712H403.012V65.7001C403.087 67.431 403.087 68.4846 405.495 68.4846C406.323 68.4846 406.7 68.4846 407.377 68.4094V72.0218Z" fill="black"/>
<path d="M412.344 56.971C412.344 56.8957 412.344 54.8637 412.194 53.5844H417.462L417.612 56.3689C418.139 55.5411 419.644 53.1328 423.708 53.1328C427.396 53.1328 428.901 55.3153 429.428 56.6699C429.804 57.7988 429.955 58.7772 429.955 62.2391V72.3236H424.386V60.6586C424.386 59.906 424.386 59.2287 424.085 58.6267C423.708 57.7988 422.805 57.0462 421.451 57.0462C420.246 57.0462 419.193 57.573 418.591 58.4761C418.215 58.9277 417.913 59.906 417.913 61.336V72.3236H412.42V56.971" fill="black"/>
<path d="M447.64 60.8836C447.64 60.0557 447.565 56.6691 444.404 56.6691C441.996 56.6691 441.017 58.6258 440.867 60.8836H447.64ZM440.716 64.3454C440.716 65.5496 440.716 69.3125 444.555 69.3125C445.909 69.3125 447.264 68.7857 447.791 66.7537H452.758C452.682 67.6568 452.532 69.2372 450.952 70.8176C449.597 72.2475 447.113 73.0001 444.404 73.0001C442.824 73.0001 439.813 72.6991 437.781 70.6671C436.05 68.8609 435.373 66.3774 435.373 63.3671C435.373 60.3567 436.126 56.7444 439.286 54.5619C440.716 53.5835 442.523 52.9814 444.555 52.9814C447.189 52.9814 450.425 54.0351 452.08 57.4969C453.36 60.0557 453.285 62.765 453.209 64.3454H440.716Z" fill="black"/>
<path d="M458.327 58.1739C458.327 57.2708 458.177 54.5615 458.102 53.5079H463.219L463.294 57.1203C463.972 55.5399 465.251 53.2821 469.691 53.5079V58.3997C464.122 57.8729 463.821 60.7327 463.821 63.0657V72.3224H458.327V58.1739Z" fill="black"/>
</g>
</svg>
