<svg width="281" height="43" viewBox="0 0 281 43" fill="none" xmlns="http://www.w3.org/2000/svg">
<g opacity="0.3">
<path d="M120.551 39.7167L108.273 5.52649C108.107 5.07172 107.9 4.41024 107.9 3.87279C107.9 2.38446 109.141 0.978821 110.96 0.978821C112.531 0.978821 113.564 2.01238 114.019 3.45937L124.189 32.8952L134.442 3.37668C134.897 1.97104 135.848 0.978821 137.419 0.978821H137.75C139.403 0.978821 140.396 2.01238 140.892 3.37668L151.062 32.8538L161.398 3.25266C161.811 2.01238 162.638 0.896137 164.292 0.896137C166.028 0.896137 167.268 2.21909 167.268 3.70742C167.268 4.24487 167.02 4.86501 166.896 5.36112L154.535 39.5927C153.915 41.3704 152.674 42.3213 151.227 42.3213H150.979C149.408 42.3213 148.251 41.3704 147.672 39.5927L137.584 10.5703L127.414 39.5927C126.877 41.3704 125.678 42.3213 124.148 42.3213H123.983C122.412 42.4453 121.171 41.4944 120.551 39.7167ZM210.016 3.91414C210.016 2.26044 211.339 0.854794 212.993 0.854794C214.729 0.854794 216.052 2.17775 216.052 3.91414V10.8597C219.029 4.12085 225.602 0.937479 229.985 0.937479C231.804 0.937479 232.961 2.26044 232.961 3.99682C232.961 5.65052 231.845 6.80811 230.274 7.05616C222.46 8.00704 216.011 13.8777 216.011 25.5362V39.2619C216.011 40.9156 214.771 42.3213 213.034 42.3213C211.298 42.3213 209.975 40.9983 209.975 39.2619L210.016 3.91414ZM252.31 42.6934C241.395 42.6934 232.507 34.2595 232.507 21.8568V21.6914C232.507 10.1568 240.568 0.854794 251.524 0.854794C263.265 0.854794 269.963 10.5289 269.963 21.1539C269.963 22.7663 268.64 23.9652 267.193 23.9652H238.501C239.328 32.6471 245.405 37.5255 252.475 37.5255C257.395 37.5255 260.991 35.5825 263.927 32.8538C264.382 32.4818 264.919 32.151 265.622 32.151C267.069 32.151 268.226 33.3086 268.226 34.7143C268.226 35.4171 267.937 36.1199 267.317 36.6574C263.513 40.2541 259.048 42.6934 252.31 42.6934ZM264.051 19.5002C263.431 12.224 259.296 5.85723 251.4 5.85723C244.496 5.85723 239.287 11.6452 238.501 19.5002H264.051ZM167.227 30.1666V30.0012C167.227 21.4847 174.255 16.9783 184.467 16.9783C189.634 16.9783 193.273 17.6812 196.911 18.7147V17.3091C196.911 10.0328 192.446 6.312 184.88 6.312C180.829 6.312 178.472 6.84945 175.495 8.17241C175.123 8.33778 174.71 8.42046 174.42 8.42046C173.015 8.42046 171.775 7.26287 171.775 5.85723C171.775 4.61696 172.312 3.83145 173.428 3.33534C177.397 1.59896 180.415 1.02016 185.542 1.02016C191.247 1.02016 195.629 2.50849 198.564 5.48515C201.293 8.21375 202.699 12.1413 202.699 17.2677V39.5513C202.699 41.2464 201.458 42.528 199.805 42.528C198.11 42.528 196.952 41.2877 196.952 39.7167V35.8718C194.141 39.5513 189.428 42.8174 182.358 42.8174C174.834 42.7347 167.227 38.4351 167.227 30.1666ZM196.993 27.0246V23.1384C194.017 22.2702 190.048 21.402 185.128 21.402C177.562 21.402 173.346 24.668 173.346 29.7532V29.9185C173.346 35.0037 178.017 37.9803 183.516 37.9803C190.916 37.9803 196.993 33.4326 196.993 27.0246ZM11.1591 3.5834C9.83616 0.689424 6.57011 -0.633534 3.51077 0.730767C0.451428 2.09507 -0.664818 5.48515 0.699483 8.37912L13.5156 36.2439C15.5414 40.6262 17.6499 42.9001 21.6601 42.9001C25.9184 42.9001 27.7788 40.4195 29.8046 36.2439C29.8046 36.2439 40.967 11.8932 41.091 11.6452C41.2151 11.3971 41.5458 10.6116 42.7034 10.6116C43.6543 10.6116 44.4811 11.3971 44.4811 12.4307V36.2439C44.4811 39.9234 46.5069 42.9414 50.4344 42.9414C54.362 42.9414 56.4704 39.9234 56.4704 36.2439V16.7716C56.4704 13.0095 59.1577 10.5703 62.8372 10.5703C66.5167 10.5703 68.9559 13.0922 68.9559 16.7716V36.2439C68.9559 39.9234 70.9816 42.9414 74.9092 42.9414C78.8367 42.9414 80.9452 39.9234 80.9452 36.2439V16.7716C80.9452 13.0095 83.6324 10.5703 87.3119 10.5703C90.9914 10.5703 93.4306 13.0922 93.4306 16.7716V36.2439C93.4306 39.9234 95.4564 42.9414 99.3839 42.9414C103.311 42.9414 105.42 39.9234 105.42 36.2439V14.0844C105.42 5.93991 98.8878 0.234657 90.9914 0.234657C83.1363 0.234657 78.1752 5.69186 78.1752 5.69186C75.5706 2.26044 71.9325 0.193315 65.8138 0.193315C59.3644 0.193315 53.7005 5.65052 53.7005 5.65052C51.0959 2.26044 46.6309 0.193315 42.9101 0.193315C37.2049 0.234657 32.6572 2.75655 29.8872 9.08194L21.7014 28.3889L11.1591 3.5834ZM270.418 5.85723C270.418 3.08729 272.609 0.813452 275.42 0.813452C278.231 0.813452 280.422 3.04594 280.422 5.77455V5.81589C280.422 8.54449 278.231 10.8597 275.42 10.8597C272.609 10.8597 270.418 8.58583 270.418 5.85723ZM279.472 5.81589C279.472 3.54205 277.735 1.72299 275.42 1.72299C273.146 1.72299 271.368 3.5834 271.368 5.81589V5.85723C271.368 8.08972 273.105 9.95013 275.42 9.95013C277.694 9.95013 279.472 8.04838 279.472 5.81589Z" fill="black"/>
<path d="M273.518 3.87168C273.518 3.58228 273.766 3.33423 274.055 3.33423H275.709C276.329 3.33423 276.825 3.4996 277.115 3.83034C277.404 4.07839 277.528 4.49182 277.528 4.94658C277.528 5.69075 277.156 6.18686 276.577 6.43491L277.321 7.34445C277.404 7.46847 277.487 7.5925 277.487 7.75787C277.487 8.04727 277.239 8.25398 276.991 8.25398C276.743 8.25398 276.577 8.12995 276.453 7.96458L275.42 6.64162H274.551V7.67519C274.551 7.96458 274.303 8.21264 274.014 8.21264C273.725 8.21264 273.477 7.96458 273.477 7.67519L273.518 3.87168ZM275.668 5.69075C276.205 5.69075 276.453 5.40135 276.453 4.98793C276.453 4.53316 276.164 4.2851 275.626 4.2851H274.551V5.69075H275.668Z" fill="black"/>
</g>
</svg>
